<svg xmlns="http://www.w3.org/2000/svg" width="13" height="13" viewBox="0 0 13 13">
    <g fill="#FFF" fill-rule="evenodd">
        <path d="M12 12h.5c.277 0 .5-.244.5-.545v-4.91c0-.3-.223-.545-.5-.545H12v6zM1 12.455V7H.5c-.276 0-.5.244-.5.545v4.91c0 .3.224.545.5.545H1v-.545zM9.313 2.708H7.625V1.625h1.688v1.083zm0 2.167H7.625V3.792h1.688v1.083zm0 2.167H7.625V5.958h1.688v1.084zm0 2.166H7.625V8.125h1.688v1.083zm-3.938-6.5H3.687V1.625h1.688v1.083zm0 2.167H3.687V3.792h1.688v1.083zm0 2.167H3.687V5.958h1.688v1.084zm0 2.166H3.687V8.125h1.688v1.083zM10.438 0H2.561A.552.552 0 0 0 2 .542v11.916c0 .3.251.542.563.542h3.374v-2.167h1.125V13h3.375a.552.552 0 0 0 .563-.542V.542A.552.552 0 0 0 10.437 0z"/>
    </g>
</svg>
