<svg xmlns="http://www.w3.org/2000/svg" width="16" height="15" viewBox="0 0 16 15">
    <g fill="#FFF" fill-rule="evenodd">
        <path d="M11.333 9.545h-2v.682a.675.675 0 0 1-.666.682H7.333a.675.675 0 0 1-.666-.682v-.682h-2a3.256 3.256 0 0 1-2-.698v5.471c0 .377.298.682.666.682h9.334a.675.675 0 0 0 .666-.682V8.847a3.256 3.256 0 0 1-2 .698M4.667 8.182h2V7.5c0-.376.298-.682.666-.682h1.334c.368 0 .666.306.666.682v.682h2c1.105 0 2-.916 2-2.046V3.41C13.333 1.527 11.841 0 10 0H6C4.16 0 2.667 1.527 2.667 3.41v2.726c0 1.13.895 2.046 2 2.046M14.667 15h.666a.675.675 0 0 0 .667-.682V7.5a2.04 2.04 0 0 0-1.333-1.92V15zM1.333 5.58A2.04 2.04 0 0 0 0 7.5v6.818c0 .377.299.682.667.682h.666V5.58z"/>
    </g>
</svg>
