<svg xmlns="http://www.w3.org/2000/svg" width="18" height="17" viewBox="0 0 18 17">
    <g fill="#FFF" fill-rule="evenodd">
        <path d="M9.75 17h.443a.452.452 0 0 0 .443-.46v-4.144a.452.452 0 0 0-.443-.46H9.75V17zM.886 16.54v-4.605H.443a.452.452 0 0 0-.443.46v4.145c0 .254.198.46.443.46h.443v-.46zM7.534 10.094h-1.33v-.921h1.33v.92zm0 1.841h-1.33v-.92h1.33v.92zm0 1.842h-1.33v-.92h1.33v.92zM4.432 8.252h-1.33v-.92h1.33v.92zm0 1.842h-1.33v-.921h1.33v.92zm0 1.841h-1.33v-.92h1.33v.92zm0 1.842h-1.33v-.92h1.33v.92zm1.72-7.827l.34 1.399a.501.501 0 0 0 .484.386h1.888v8.805c0 .254-.198.46-.444.46H5.761v-1.842h-.886V17h-2.66a.452.452 0 0 1-.442-.46V6.41c0-.254.198-.46.443-.46H6.15z"/>
        <path d="M9.187 3.272h6.458a1.63 1.63 0 0 1 1.619 1.637 1.63 1.63 0 0 1-1.619 1.636h-1.371L12.56 9.142a.462.462 0 0 1-.384.208h-1.85a.462.462 0 0 1-.408-.247.473.473 0 0 1 .023-.48l1.37-2.078H8.016a.464.464 0 0 1-.449-.354l-.925-3.74a.47.47 0 0 1 .084-.401.46.46 0 0 1 .365-.18h.925c.154 0 .298.078.384.208l.788 1.195zM12.177 0c.161 0 .31.085.395.224l1.277 2.113h-2.934L9.932.712A.472.472 0 0 1 9.924.24.462.462 0 0 1 10.327 0h1.85z"/>
    </g>
</svg>
