<?xml version="1.0" encoding="UTF-8"?>
<svg width="19px" height="11px" viewBox="0 0 19 11" version="1.1" xmlns="http://www.w3.org/2000/svg" xmlns:xlink="http://www.w3.org/1999/xlink">
    <!-- Generator: Sketch 50.2 (55047) - http://www.bohemiancoding.com/sketch -->
    <title>Combined Shape</title>
    <desc>Created with Sketch.</desc>
    <defs></defs>
    <g id="UI" stroke="none" stroke-width="1" fill="none" fill-rule="evenodd">
        <g id="Home-1-v2" transform="translate(-850.000000, -411.000000)" fill="#B4BAC7">
            <g id="Group-15" transform="translate(200.000000, 184.000000)">
                <g id="Group-7" transform="translate(0.000000, 147.000000)">
                    <g id="Group-5">
                        <g id="Group-11" transform="translate(468.000000, 60.000000)">
                            <g id="Group-6" transform="translate(182.000000, 20.000000)">
                                <path d="M4.19513069,10.9477667 C4.10416384,11.0312125 3.96322572,11.0101138 3.89263645,10.916886 L0.159048143,5.9859054 C-0.0530160478,5.70562974 -0.0530160478,5.2984368 0.159048143,5.01816114 L3.89263645,0.0871805718 C3.96873256,-0.0133201831 4.099586,-0.0313453065 4.19513069,0.0562998576 L4.91985492,0.721104657 C5.01082177,0.804550465 5.02374291,0.952562697 4.95147493,1.04805257 L1.58035863,5.502411 L4.95147493,9.95604266 C5.02497853,10.0531493 5.01539962,10.1953167 4.91985492,10.2829619 L4.19513069,10.9477667 Z M15.1073636,10.9128343 C15.0312674,11.013327 14.900414,11.0313414 14.8048693,10.9436902 L14.0801451,10.2788401 C13.9891782,10.1953886 13.9762571,10.0473794 14.0485251,9.95189864 L17.4196414,5.49796355 L14.0485251,1.04402847 C13.9750215,0.946915161 13.9846004,0.804738113 14.0801451,0.717086978 L14.8048693,0.0522368855 C14.8958362,-0.0312146069 15.0367743,-0.0101144836 15.1073636,0.0831197037 L18.8409519,5.01443621 C19.053016,5.29473097 19.053016,5.70195165 18.8409519,5.9822464 L15.1073636,10.9128343 Z" id="Combined-Shape"></path>
                            </g>
                        </g>
                    </g>
                </g>
            </g>
        </g>
    </g>
</svg>