<?xml version="1.0" encoding="UTF-8"?>
<svg width="14px" height="13px" viewBox="0 0 14 13" version="1.1" xmlns="http://www.w3.org/2000/svg" xmlns:xlink="http://www.w3.org/1999/xlink">
    <!-- Generator: Sketch 50.2 (55047) - http://www.bohemiancoding.com/sketch -->
    <title>Combined Shape</title>
    <desc>Created with Sketch.</desc>
    <defs></defs>
    <g id="UI" stroke="none" stroke-width="1" fill="none" fill-rule="evenodd">
        <g id="Home-1-v2" transform="translate(-439.000000, -409.000000)" fill="#FFFFFF">
            <g id="Group-15" transform="translate(200.000000, 184.000000)">
                <g id="Group-7" transform="translate(0.000000, 147.000000)">
                    <g id="Group-5">
                        <g id="Group-11" transform="translate(30.000000, 60.000000)">
                            <g id="Group-10" transform="translate(200.000000, 0.000000)">
                                <g id="Group-4" transform="translate(0.000000, 8.000000)">
                                    <path d="M22.8158984,19.9785964 L19.4828782,22.8860803 C19.2335884,23.1035426 19.029052,23.0092867 19.029052,22.6729207 L19.029052,20.1992538 L13.279699,20.1992538 C13.0974802,20.1992538 12.970948,20.059943 12.970948,19.8880945 L12.970948,19.2773285 C12.970948,19.0981308 13.1091806,18.9661692 13.279699,18.9661692 L19.029052,18.9661692 L19.029052,16.4925023 C19.029052,16.146288 19.2322369,16.0607014 19.4828782,16.2793427 L22.8158984,19.1868265 C23.0651882,19.4042888 23.0665397,19.7599552 22.8158984,19.9785964 Z M19.029052,13.1119055 L19.029052,13.7226715 C19.029052,13.9018692 18.8908194,14.0338308 18.720301,14.0338308 L12.970948,14.0338308 L12.970948,16.5074977 C12.970948,16.853712 12.7677631,16.9392986 12.5171218,16.7206573 L9.18410158,13.8131735 C8.93481178,13.5957112 8.93346026,13.2400448 9.18410158,13.0214036 L12.5171218,10.1139197 C12.7664116,9.89645744 12.970948,9.99071329 12.970948,10.3270793 L12.970948,12.8007462 L18.720301,12.8007462 C18.9025198,12.8007462 19.029052,12.940057 19.029052,13.1119055 Z" id="Combined-Shape"></path>
                                </g>
                            </g>
                        </g>
                    </g>
                </g>
            </g>
        </g>
    </g>
</svg>