<?xml version="1.0" encoding="UTF-8"?>
<svg width="17px" height="23px" viewBox="0 0 17 23" version="1.1" xmlns="http://www.w3.org/2000/svg" xmlns:xlink="http://www.w3.org/1999/xlink">
    <!-- Generator: sketchtool 50.2 (55047) - http://www.bohemiancoding.com/sketch -->
    <title>36D08D19-1E4A-4604-933A-7DCBB0165F4D</title>
    <desc>Created with sketchtool.</desc>
    <defs></defs>
    <g id="💻UI" stroke="none" stroke-width="1" fill="none" fill-rule="evenodd">
        <g id="Dashboard-T3R0" transform="translate(-772.000000, -753.000000)" fill="#FFFFFF">
            <g id="Group-18" transform="translate(760.000000, 744.000000)">
                <g id="Group-17">
                    <g id="cashes" transform="translate(12.000000, 9.000000)">
                        <g id="Group-19" transform="translate(0.444444, 0.777778)">
                            <path d="M7.16204444,18.3439111 C7.14248889,18.4505778 7.11137778,18.5554667 7.11137778,18.6665778 C7.11137778,20.1874667 9.0216,21.3332444 11.5558222,21.3332444 C14.0891556,21.3332444 16.0002667,20.1874667 16.0002667,18.6665778 C16.0002667,18.5554667 15.9691556,18.4505778 15.9487111,18.3439111 C14.8482667,19.1048 13.3220444,19.5554667 11.5558222,19.5554667 C9.78871111,19.5554667 8.26248889,19.1048 7.16204444,18.3439111" id="Fill-788"></path>
                            <path d="M15.9490667,14.7883556 C14.8486222,15.5492444 13.3224,15.9999111 11.5552889,15.9999111 C9.78906667,15.9999111 8.26284444,15.5492444 7.1624,14.7883556 C7.14195556,14.8950222 7.11084444,14.9999111 7.11084444,15.1110222 C7.11084444,16.6319111 9.02195556,17.7776889 11.5552889,17.7776889 C14.0895111,17.7776889 15.9997333,16.6319111 15.9997333,15.1110222 C15.9997333,14.9999111 15.9686222,14.8950222 15.9490667,14.7883556" id="Fill-789"></path>
                            <path d="M15.9490667,11.2328 C14.8486222,11.9936889 13.3224,12.4443556 11.5552889,12.4443556 C9.78906667,12.4443556 8.26284444,11.9936889 7.1624,11.2328 C7.14195556,11.3394667 7.11084444,11.4443556 7.11084444,11.5554667 C7.11084444,13.0763556 9.02195556,14.2221333 11.5552889,14.2221333 C14.0895111,14.2221333 15.9997333,13.0763556 15.9997333,11.5554667 C15.9997333,11.4443556 15.9686222,11.3394667 15.9490667,11.2328" id="Fill-790"></path>
                            <path d="M11.5555556,5.33333333 C9.02133333,5.33333333 7.11111111,6.48 7.11111111,8 C7.11111111,9.52 9.02133333,10.6666667 11.5555556,10.6666667 C14.0897778,10.6666667 16,9.52 16,8 C16,6.48 14.0897778,5.33333333 11.5555556,5.33333333" id="Fill-791"></path>
                            <path d="M4.44444444,8.88888889 C4.78844444,8.88888889 5.11733333,8.864 5.43555556,8.824 C5.37155556,8.55555556 5.33333333,8.28177778 5.33333333,8 C5.33333333,7.66755556 5.38488889,7.35022222 5.46933333,7.04533333 C5.136,7.08 4.79911111,7.11111111 4.44444444,7.11111111 C2.67822222,7.11111111 1.15111111,6.66044444 0.0506666667,5.89955556 C0.0311111111,6.00622222 0,6.11111111 0,6.22222222 C0,7.74222222 1.91022222,8.88888889 4.44444444,8.88888889" id="Fill-843"></path>
                            <path d="M4.44444444,0 C1.91022222,0 0,1.14666667 0,2.66666667 C0,4.18666667 1.91022222,5.33333333 4.44444444,5.33333333 C6.97866667,5.33333333 8.88888889,4.18666667 8.88888889,2.66666667 C8.88888889,1.14666667 6.97866667,0 4.44444444,0" id="Fill-844"></path>
                            <path d="M4.44444444,12.4444444 C4.78844444,12.4444444 5.11733333,12.4195556 5.43555556,12.3795556 C5.37155556,12.1111111 5.33333333,11.8373333 5.33333333,11.5555556 C5.33333333,11.2284444 5.37955556,10.9093333 5.46666667,10.6008889 C5.13422222,10.6355556 4.79822222,10.6666667 4.44444444,10.6666667 C2.67822222,10.6666667 1.15111111,10.216 0.0506666667,9.45511111 C0.0311111111,9.56177778 0,9.66666667 0,9.77777778 C0,11.2977778 1.91022222,12.4444444 4.44444444,12.4444444" id="Fill-845"></path>
                            <path d="M4.44444444,16 C4.78844444,16 5.11733333,15.9751111 5.43555556,15.9351111 C5.37155556,15.6666667 5.33333333,15.3928889 5.33333333,15.1111111 C5.33333333,14.784 5.37955556,14.4648889 5.46666667,14.1564444 C5.13422222,14.1911111 4.79822222,14.2222222 4.44444444,14.2222222 C2.67822222,14.2222222 1.15111111,13.7715556 0.0506666667,13.0106667 C0.0311111111,13.1173333 0,13.2222222 0,13.3333333 C0,14.8533333 1.91022222,16 4.44444444,16" id="Fill-846"></path>
                        </g>
                    </g>
                </g>
            </g>
        </g>
    </g>
</svg>