<?xml version="1.0" encoding="utf-8"?>
<!-- Generator: Adobe Illustrator 16.0.0, SVG Export Plug-In . SVG Version: 6.00 Build 0)  -->
<!DOCTYPE svg PUBLIC "-//W3C//DTD SVG 1.1//EN" "http://www.w3.org/Graphics/SVG/1.1/DTD/svg11.dtd">
<svg version="1.1" id="Layer_1" xmlns="http://www.w3.org/2000/svg" xmlns:xlink="http://www.w3.org/1999/xlink" x="0px" y="0px"
	 width="800px" height="800px" viewBox="0 0 800 800" enable-background="new 0 0 800 800" xml:space="preserve">
<g>
	<g>
		<path fill="#CCD1DA" d="M790.535,9.466c-12.62-12.621-33.081-12.621-45.701,0L9.466,744.833c-12.621,12.62-12.621,33.081,0,45.701
			C15.775,796.847,24.047,800,32.318,800c8.27,0,16.54-3.154,22.852-9.467L790.535,55.166
			C803.155,42.547,803.155,22.086,790.535,9.466z"/>
	</g>
</g>
<g>
	<path fill="#CCD1DA" d="M790.534,744.834L55.165,9.467c-12.618-12.621-33.081-12.621-45.699,0c-12.621,12.619-12.621,33.08,0,45.7
		l735.368,735.369c6.31,6.311,14.581,9.466,22.852,9.466s16.542-3.155,22.85-9.465C803.153,777.916,803.153,757.455,790.534,744.834
		z"/>
</g>
</svg>
