<svg xmlns="http://www.w3.org/2000/svg" xmlns:xlink="http://www.w3.org/1999/xlink" width="40" height="40" viewBox="0 0 40 40">
    <defs>
        <rect id="a" width="40" height="40" rx="20"/>
    </defs>
    <g fill="none" fill-rule="evenodd">
        <mask id="b" fill="#fff">
            <use xlink:href="#a"/>
        </mask>
        <use fill="#71BA80" xlink:href="#a"/>
        <path fill="#61AA70" d="M16.926 3.944l22.837.023.157 41.724-22.994.118z" mask="url(#b)" opacity=".5" transform="rotate(30 28.423 24.876)"/>
        <g mask="url(#b)">
            <g fill="#444">
                <path d="M11.773 29h15.454a.762.762 0 0 0 .773-.75c0-3.5-2.077-4.463-4.392-5.212a2.156 2.156 0 0 1-1.087-.809A6.28 6.28 0 0 1 19.5 23a6.28 6.28 0 0 1-3.021-.771 2.156 2.156 0 0 1-1.087.81C13.077 23.786 11 24.748 11 28.25c0 .414.346.75.773.75M19.5 21.5c2.557 0 4.636-2.018 4.636-4.5v-1.5c0-2.482-2.079-4.5-4.636-4.5s-4.636 2.018-4.636 4.5V17c0 2.482 2.079 4.5 4.636 4.5"/>
            </g>
            <path fill="#444" d="M11.773 29h15.454a.762.762 0 0 0 .773-.75c0-3.5-2.077-4.463-4.392-5.212a2.156 2.156 0 0 1-1.087-.809A6.28 6.28 0 0 1 19.5 23a6.28 6.28 0 0 1-3.021-.771 2.156 2.156 0 0 1-1.087.81C13.077 23.786 11 24.748 11 28.25c0 .414.346.75.773.75"/>
            <path fill="#FFF" d="M11.773 29h15.454a.762.762 0 0 0 .773-.75c0-3.5-2.077-4.463-4.392-5.212a2.156 2.156 0 0 1-1.087-.809A6.28 6.28 0 0 1 19.5 23a6.28 6.28 0 0 1-3.021-.771 2.156 2.156 0 0 1-1.087.81C13.077 23.786 11 24.748 11 28.25c0 .414.346.75.773.75"/>
            <path fill="#444" d="M19.5 21.5c2.557 0 4.636-2.018 4.636-4.5v-1.5c0-2.482-2.079-4.5-4.636-4.5s-4.636 2.018-4.636 4.5V17c0 2.482 2.079 4.5 4.636 4.5"/>
            <path fill="#FFF" d="M19.5 21.5c2.557 0 4.636-2.018 4.636-4.5v-1.5c0-2.482-2.079-4.5-4.636-4.5s-4.636 2.018-4.636 4.5V17c0 2.482 2.079 4.5 4.636 4.5"/>
        </g>
    </g>
</svg>
