<?xml version="1.0" encoding="UTF-8"?>
<svg width="16px" height="18px" viewBox="0 0 16 18" version="1.1" xmlns="http://www.w3.org/2000/svg" xmlns:xlink="http://www.w3.org/1999/xlink">
    <!-- Generator: Sketch 50.2 (55047) - http://www.bohemiancoding.com/sketch -->
    <title>Shape</title>
    <desc>Created with Sketch.</desc>
    <defs></defs>
    <g id="UI" stroke="none" stroke-width="1" fill="none" fill-rule="evenodd">
        <g id="Home-1-v2" transform="translate(-683.000000, -407.000000)" fill="#B4BAC7" fill-rule="nonzero">
            <g id="Group-15" transform="translate(200.000000, 184.000000)">
                <g id="Group-7" transform="translate(0.000000, 147.000000)">
                    <g id="Group-5">
                        <g id="Group-11" transform="translate(468.000000, 60.000000)">
                            <path d="M26.5555556,25.9 L23.8888889,25.9 C23.4,25.9 23,26.305 23,26.8 L23,29.5 C23,29.995 23.4,30.4 23.8888889,30.4 L26.5555556,30.4 C27.0444444,30.4 27.4444444,29.995 27.4444444,29.5 L27.4444444,26.8 C27.4444444,26.305 27.0444444,25.9 26.5555556,25.9 Z M26.5555556,16.9 L26.5555556,17.8 L19.4444444,17.8 L19.4444444,16.9 C19.4444444,16.405 19.0444444,16 18.5555556,16 C18.0666667,16 17.6666667,16.405 17.6666667,16.9 L17.6666667,17.8 L16.7777778,17.8 C15.7911111,17.8 15.0088889,18.61 15.0088889,19.6 L15,32.2 C15,33.19 15.7911111,34 16.7777778,34 L29.2222222,34 C30.2,34 31,33.19 31,32.2 L31,19.6 C31,18.61 30.2,17.8 29.2222222,17.8 L28.3333333,17.8 L28.3333333,16.9 C28.3333333,16.405 27.9333333,16 27.4444444,16 C26.9555556,16 26.5555556,16.405 26.5555556,16.9 Z M28.3333333,32.2 L17.6666667,32.2 C17.1777778,32.2 16.7777778,31.795 16.7777778,31.3 L16.7777778,22.3 L29.2222222,22.3 L29.2222222,31.3 C29.2222222,31.795 28.8222222,32.2 28.3333333,32.2 Z" id="Shape"></path>
                        </g>
                    </g>
                </g>
            </g>
        </g>
    </g>
</svg>