<?xml version="1.0" encoding="UTF-8"?>
<svg width="150px" height="150px" viewBox="0 0 150 150" version="1.1" xmlns="http://www.w3.org/2000/svg" xmlns:xlink="http://www.w3.org/1999/xlink">
    <!-- Generator: sketchtool 50.2 (55047) - http://www.bohemiancoding.com/sketch -->
    <title>9316CFE0-4FE3-4FC3-97DC-1F508DDB7E19</title>
    <desc>Created with sketchtool.</desc>
    <defs></defs>
    <g id="💻UI" stroke="none" stroke-width="1" fill="none" fill-rule="evenodd">
        <g id="Dashboard-T5R0-Recent-Searches-EmptyState" transform="translate(-645.000000, -527.000000)">
            <g id="Group-16" transform="translate(402.000000, 527.000000)">
                <g id="lists" transform="translate(243.000000, 0.000000)">
                    <g id="Group-11">
                        <circle id="Oval" fill="#F6F7F8" cx="75" cy="75" r="75"></circle>
                        <g id="Group-10" transform="translate(25.233645, 52.570093)" fill="#DCE1E5" fill-rule="nonzero">
                            <path d="M37.1964245,0 L7.71599649,0 C3.45889498,0 0,3.4589417 0,7.71610071 L0,37.1437124 C0,41.4008714 3.45889498,44.8598131 7.71599649,44.8598131 L37.1432107,44.8598131 C41.4003122,44.8598131 44.8592072,41.4008714 44.8592072,37.1437124 L44.8592072,7.71610071 C44.912421,3.4589417 41.453526,0 37.1964245,0 Z M37.3447605,21.1402574 L31.3924301,26.88504 L32.7866696,34.9702894 C32.9475434,35.9809456 32.3040482,36.9384094 31.2851809,37.0979867 C30.8561841,37.1511791 30.4808119,37.0979867 30.1054397,36.9384094 L22.8124943,33.1085544 L15.5195488,36.9384094 C14.6079306,37.4171412 13.4818141,37.0447942 12.9991927,36.1937153 C12.7846943,35.8213683 12.7310697,35.3958289 12.8383189,35.0234819 L14.2325584,26.88504 L8.28022798,21.1402574 C7.52948359,20.4487558 7.52948359,19.2785224 8.22660338,18.5338283 C8.49472637,18.2678662 8.87009856,18.0550965 9.29909535,18.001904 L17.4500344,16.7784781 L21.0965071,9.43792267 C21.5255039,8.53365135 22.6516205,8.16130434 23.5632386,8.58684378 C23.9386108,8.74642107 24.2067338,9.06557566 24.4212322,9.43792267 L28.0677049,16.7784781 L36.2722686,17.9487116 C37.2911359,18.1082889 37.9882557,19.0125602 37.8273819,20.0232164 C37.7737573,20.4487558 37.5592589,20.8211029 37.3447605,21.1402574 Z" id="Shape"></path>
                            <path d="M71.4953401,4.73242031 C74.0427222,0.803815443 78.5869611,-1.39999998 83.5447263,-1.39999998 C92.7616746,-1.39999998 99.5308411,6.57344198 99.5308411,15.1553533 C99.5308411,29.5193509 92.7858097,37.4331594 72.0376175,46.1505187 L71.4953255,46.3783629 L70.953034,46.1505176 C50.2048982,37.43313 43.4598131,29.5192899 43.4598131,15.1553533 C43.4598131,6.57346854 50.2290237,-1.39999998 59.4459279,-1.39999998 C64.4037449,-1.39999998 68.9479898,0.803812113 71.4953401,4.73242031 Z" id="Shape" stroke="#F6F7F8" stroke-width="2.79999995"></path>
                        </g>
                    </g>
                </g>
            </g>
        </g>
    </g>
</svg>