<?xml version="1.0" encoding="UTF-8"?>
<svg width="69px" height="40px" viewBox="0 0 69 40" version="1.1" xmlns="http://www.w3.org/2000/svg" xmlns:xlink="http://www.w3.org/1999/xlink">
    <!-- Generator: Sketch 50.2 (55047) - http://www.bohemiancoding.com/sketch -->
    <title>Group 8</title>
    <desc>Created with Sketch.</desc>
    <defs></defs>
    <g id="UI" stroke="none" stroke-width="1" fill="none" fill-rule="evenodd">
        <g id="Home-Services-Dropdown-Default" transform="translate(-200.000000, -12.000000)">
            <g id="Group-8" transform="translate(200.000000, 12.000000)">
                <path d="M0.285819231,0.4428 L0.285819231,8.30502222 L2.72558846,8.30502222 L2.72558846,5.56635556 L5.29760769,5.56635556 L5.64924231,3.64546667 L2.72558846,3.64546667 L2.72558846,2.44146667 L5.83589615,2.44146667 L6.19858846,0.4428 L0.285819231,0.4428 Z M31.4878846,0.4428 L34.2355,0.4428 L31.5533462,5.22502222 L31.5533462,8.30502222 L29.0481154,8.30502222 L29.0481154,5.25702222 L26.3447308,0.4428 L29.1361346,0.4428 L30.3232885,3.20368889 L31.4878846,0.4428 Z M13.2874096,0.4428 L15.7271788,0.4428 L15.7271788,6.21791111 L19.2001788,6.21791111 L18.8153712,8.30502222 L13.2874096,8.30502222 L13.2874096,0.4428 Z M16.2437942,14.5781333 C16.9249481,14.5781333 17.5056981,14.6408 17.9856019,14.7656889 C18.4655058,14.8910222 18.8573904,15.0910222 19.1616981,15.3674667 C19.4655635,15.6434667 19.6889288,16.0025778 19.8317942,16.4439111 C19.9746596,16.8856889 20.0463135,17.4274667 20.0463135,18.0679111 L20.0463135,19.3710222 C20.0463135,20.0114667 19.9746596,20.5541333 19.8317942,20.9994667 C19.6889288,21.4452444 19.4655635,21.8061333 19.1616981,22.0821333 C18.8573904,22.3581333 18.4655058,22.5572444 17.9856019,22.6785778 C17.5056981,22.7999111 16.9249481,22.8608 16.2437942,22.8608 C15.5621981,22.8608 14.9814481,22.7999111 14.5015442,22.6785778 C14.0216404,22.5572444 13.6297558,22.3581333 13.3258904,22.0821333 C13.0215827,21.8061333 12.7982173,21.4452444 12.6553519,20.9994667 C12.5124865,20.5541333 12.4408327,20.0114667 12.4408327,19.3710222 L12.4408327,18.0679111 C12.4408327,17.4274667 12.5124865,16.8856889 12.6553519,16.4439111 C12.7982173,16.0025778 13.0215827,15.6434667 13.3258904,15.3674667 C13.6297558,15.0910222 14.0216404,14.8910222 14.5015442,14.7656889 C14.9814481,14.6408 15.5621981,14.5781333 16.2437942,14.5781333 Z M16.2437942,20.7399111 C16.4852942,20.7399111 16.6812365,20.7194667 16.8316212,20.6794667 C16.9815635,20.6390222 17.1009865,20.5674667 17.1890058,20.4643556 C17.277025,20.3612444 17.3371788,20.2208 17.3703519,20.0443556 C17.4030827,19.8674667 17.4194481,19.6430222 17.4194481,19.3710222 L17.4194481,18.0679111 C17.4194481,17.7950222 17.4030827,17.5705778 17.3703519,17.3941333 C17.3371788,17.2172444 17.277025,17.0776889 17.1890058,16.9745778 C17.1009865,16.8714667 16.9815635,16.7999111 16.8316212,16.7590222 C16.6812365,16.7181333 16.4852942,16.6985778 16.2437942,16.6985778 C16.0018519,16.6985778 15.8059096,16.7181333 15.6559673,16.7590222 C15.5055827,16.7999111 15.3866019,16.8714667 15.2985827,16.9745778 C15.2105635,17.0776889 15.1499673,17.2172444 15.1172365,17.3941333 C15.0840635,17.5705778 15.0676981,17.7950222 15.0676981,18.0679111 L15.0676981,19.3710222 C15.0676981,19.6430222 15.0840635,19.8674667 15.1172365,20.0443556 C15.1499673,20.2208 15.2105635,20.3612444 15.2985827,20.4643556 C15.3866019,20.5674667 15.5055827,20.6390222 15.6559673,20.6794667 C15.8059096,20.7194667 16.0018519,20.7399111 16.2437942,20.7399111 Z M43.98175,14.6084889 C44.6629038,14.6084889 45.2436538,14.6711556 45.7235577,14.7960444 C46.2034615,14.9213778 46.5953462,15.1218222 46.8996538,15.3978222 C47.2035192,15.6738222 47.4268846,16.0329333 47.56975,16.4747111 C47.7126154,16.9160444 47.7842692,17.4578222 47.7842692,18.0982667 L47.7842692,19.4013778 C47.7842692,20.3142667 47.6396346,21.0302667 47.3503654,21.5493778 C47.0606538,22.0684889 46.5935769,22.4311556 45.9486923,22.6364889 L47.5533846,24.1382667 L44.7951538,24.1382667 L43.5199808,22.8800444 C42.9268462,22.8502667 42.4190769,22.7658222 41.998,22.6258222 C41.5764808,22.4862667 41.2301538,22.2778222 40.9594615,22.0022667 C40.6883269,21.7258222 40.4901731,21.3747111 40.3658846,20.9476 C40.2411538,20.5204889 40.1787885,20.0049333 40.1787885,19.4013778 L40.1787885,18.0982667 C40.1787885,17.4578222 40.2504423,16.9160444 40.3933077,16.4747111 C40.5361731,16.0329333 40.7595385,15.6738222 41.0638462,15.3978222 C41.3677115,15.1218222 41.7595962,14.9213778 42.2395,14.7960444 C42.7194038,14.6711556 43.3001538,14.6084889 43.98175,14.6084889 Z M43.98175,20.8702667 C44.22325,20.8702667 44.4191923,20.8498222 44.5695769,20.8093778 C44.7195192,20.7689333 44.8389423,20.6973778 44.9269615,20.5938222 C45.0149808,20.4902667 45.0751346,20.3511556 45.1083077,20.1738222 C45.1410385,19.9973778 45.1574038,19.7729333 45.1574038,19.5009333 L45.1574038,18.0982667 C45.1574038,17.8258222 45.1410385,17.6009333 45.1083077,17.4244889 C45.0751346,17.2476 45.0149808,17.1080444 44.9269615,17.0049333 C44.8389423,16.9018222 44.7195192,16.8302667 44.5695769,16.7898222 C44.4191923,16.7484889 44.22325,16.7289333 43.98175,16.7289333 C43.7398077,16.7289333 43.5438654,16.7484889 43.3939231,16.7898222 C43.2435385,16.8302667 43.1245577,16.9018222 43.0365385,17.0049333 C42.9485192,17.1080444 42.8879231,17.2476 42.8551923,17.4244889 C42.8220192,17.6009333 42.8056538,17.8258222 42.8056538,18.0982667 L42.8056538,19.5009333 C42.8056538,19.7729333 42.8220192,19.9973778 42.8551923,20.1738222 C42.8879231,20.3511556 42.9485192,20.4902667 43.0365385,20.5938222 C43.1245577,20.6973778 43.2435385,20.7689333 43.3939231,20.8093778 C43.5438654,20.8498222 43.7398077,20.8702667 43.98175,20.8702667 Z M26.7291846,14.6883556 L29.2790885,14.6883556 L29.2790885,19.4812444 C29.2790885,19.6950222 29.2936846,19.8732444 29.3228769,20.0168 C29.3520692,20.1608 29.4033769,20.2781333 29.4768,20.3701333 C29.5502231,20.4621333 29.6528385,20.5288 29.7846462,20.5688 C29.9164538,20.6092444 30.0849731,20.6296889 30.2902038,20.6296889 C30.4949923,20.6296889 30.6617423,20.6092444 30.7904538,20.5688 C30.9182808,20.5288 31.0208962,20.4621333 31.0978577,20.3701333 C31.1748192,20.2781333 31.2278962,20.1608 31.2570885,20.0168 C31.2862808,19.8732444 31.3013192,19.6950222 31.3013192,19.4812444 L31.3013192,14.6883556 L33.8507808,14.6883556 L33.8507808,19.4812444 C33.8507808,20.0852444 33.7866462,20.5945778 33.6583769,21.0110222 C33.53055,21.4265778 33.32355,21.7634667 33.0378192,22.0208 C32.7520885,22.2785778 32.3836462,22.4648 31.9333769,22.5790222 C31.4826654,22.6928 30.9346462,22.7496889 30.2902038,22.7496889 C29.6453192,22.7496889 29.0977423,22.6928 28.6470308,22.5790222 C28.1967615,22.4648 27.8283192,22.2785778 27.5425885,22.0208 C27.2568577,21.7634667 27.0498577,21.4265778 26.9215885,21.0110222 C26.7933192,20.5945778 26.7291846,20.0852444 26.7291846,19.4812444 L26.7291846,14.6883556 Z M-8.77076189e-15,16.9631111 C-8.77076189e-15,16.5808889 0.0548461538,16.24 0.164980769,15.9417778 C0.274673077,15.6435556 0.452480769,15.3937778 0.697961538,15.1911111 C0.943442308,14.9888889 1.26013462,14.8355556 1.64848077,14.7324444 C2.03682692,14.6293333 5.46559615,14.5853333 6.15471154,14.6004444 L5.79201923,16.5764444 C5.16173077,16.5693333 4.62875,16.5644444 4.19307692,16.5604444 C3.75696154,16.5564444 3.39603846,16.5546667 3.11030769,16.5546667 C2.89048077,16.5546667 2.74407692,16.584 2.67065385,16.6426667 C2.59723077,16.7022222 2.56096154,16.7977778 2.56096154,16.9306667 C2.56096154,17.0773333 2.59015385,17.1715556 2.64853846,17.2124444 C2.70736538,17.2524444 2.83563462,17.2911111 3.03334615,17.3275556 L4.14309615,17.5373333 C4.57567308,17.6191111 4.93305769,17.7253333 5.21480769,17.8582222 C5.497,17.9906667 5.72213462,18.1502222 5.89065385,18.3386667 C6.05917308,18.5262222 6.17638462,18.7493333 6.24228846,19.0066667 C6.30863462,19.2644444 6.34136538,19.5586667 6.34136538,19.8897778 L6.34136538,20.0333333 C6.34136538,20.4751111 6.28651923,20.8506667 6.17638462,21.1595556 C6.06669231,21.4693333 5.88136538,21.7226667 5.62173077,21.9217778 C5.36121154,22.1204444 5.02284615,22.2644444 4.60486538,22.3524444 C4.18732692,22.4404444 3.67071154,22.4848889 3.05546154,22.4848889 L2.40703846,22.4848889 L1.76967308,22.4848889 C1.54232692,22.4848889 1.28755769,22.4831111 1.00580769,22.4795556 C0.723615385,22.4755556 0.388346154,22.4706667 -8.77076189e-15,22.4626667 L0.351634615,20.4862222 C0.923096154,20.5008889 1.449,20.5084444 1.92890385,20.5084444 L3.11030769,20.5084444 C3.33721154,20.5084444 3.48936538,20.4786667 3.56632692,20.4195556 C3.64328846,20.3613333 3.68176923,20.2506667 3.68176923,20.0884444 C3.68176923,19.9266667 3.64903846,19.8222222 3.58269231,19.7737778 C3.51678846,19.7266667 3.38498077,19.6835556 3.18726923,19.6466667 L2.40703846,19.5031111 C1.92359615,19.4155556 1.52596154,19.3084444 1.21457692,19.1826667 C0.90275,19.0577778 0.657711538,18.9031111 0.478134615,18.7191111 C0.298557692,18.5351111 0.173826923,18.3124444 0.104384615,18.0511111 C0.0349423077,17.7897778 -8.77076189e-15,17.4751111 -8.77076189e-15,17.1066667 L-8.77076189e-15,16.9631111 Z M31.6572,29.9552889 L33.8510462,29.9552889 L33.8510462,35.6348444 L30.7239308,35.6348444 C30.6040654,35.6348444 30.4740269,35.6228444 30.3395654,35.5926222 C30.1922769,35.5624 30.0525077,35.5099556 29.9176038,35.4370667 C29.8154308,35.3819556 29.7203346,35.3166222 29.6305462,35.2415111 C29.5084692,35.3344 29.3709115,35.4117333 29.2187577,35.4748444 C28.8967577,35.6050667 28.5053154,35.6699556 28.0183346,35.6699556 C27.5915077,35.6699556 27.2022769,35.6099556 26.8678923,35.4921778 C26.6958346,35.4348444 26.5458923,35.3566222 26.4162962,35.2610667 C26.1566615,35.4748444 25.7771615,35.6348444 25.2233923,35.6348444 L18.4366231,35.6304 C18.3517,36.0015111 18.2420077,36.3272889 18.10445,36.6059556 C17.9124885,36.9992889 17.6630269,37.3281778 17.3560654,37.5810667 C17.0491038,37.8344 16.6771231,38.0201778 16.2502962,38.1304 C15.8535462,38.2308444 15.3917769,38.2828444 14.8826808,38.2828444 C14.7106231,38.2828444 14.55095,38.2757333 14.4058731,38.2584 C14.2638923,38.2406222 14.1338538,38.2184 14.0268154,38.1904 C13.8967769,38.1557333 13.7946038,38.1228444 13.7048154,38.0877333 L13.3978538,37.9775111 L13.3978538,35.8281778 L14.0515846,36.1192889 C14.2585846,36.2121778 14.4757577,36.2570667 14.7154885,36.2570667 C14.9702577,36.2570667 15.1971615,36.2397333 15.3891231,36.1997333 C15.5487962,36.1690667 15.6814885,36.1139556 15.7938346,36.0312889 C15.9035269,35.9539556 15.9955269,35.8459556 16.0729308,35.7077333 C16.0857577,35.6828444 16.0981423,35.6579556 16.1105269,35.6304 L15.6040846,35.6304 C15.1573538,35.6304 14.7429115,35.5597333 14.3709308,35.4170667 C13.9940846,35.2717333 13.6623538,35.0579556 13.3850269,34.7850667 C13.1081423,34.5095111 12.8909692,34.1784 12.7414692,33.7992889 C12.5941808,33.4259556 12.5216423,33.0095111 12.5216423,32.5579556 C12.5216423,32.1495111 12.5689692,31.7508444 12.6614115,31.3695111 C12.7613731,30.9632889 12.9338731,30.5997333 13.1705077,30.2864 C13.4151038,29.9628444 13.7419692,29.7019556 14.1440269,29.5112889 C14.5434308,29.3206222 15.0348346,29.2250667 15.6040846,29.2250667 C16.1680269,29.2250667 16.6545654,29.3157333 17.0437962,29.4886222 C17.4533731,29.6712889 17.7877577,29.9450667 18.0345654,30.2984 C18.2716423,30.6375111 18.4388346,31.0512889 18.5312769,31.5250667 C18.6188538,31.9641778 18.6635269,32.4704 18.6635269,33.0246222 C18.6635269,33.2072889 18.6586615,33.3832889 18.6537962,33.5512889 L24.6342385,33.5539556 C24.6567962,33.5539556 24.6917385,33.5512889 24.7492385,33.5339556 C24.7740077,33.5264 24.7992192,33.5139556 24.8266423,33.4886222 C24.8540654,33.4655111 24.8788346,33.4281778 24.9013923,33.3784 C24.9137769,33.3508444 24.9363346,33.2855111 24.9363346,33.1521778 L24.9363346,30.4015111 L27.1301808,30.4015111 L27.1301808,33.2424 C27.1301808,33.3455111 27.1500846,33.3957333 27.1576038,33.4104 C27.1775077,33.4481778 27.1996231,33.4761778 27.2297,33.4961778 C27.2721615,33.5232889 27.3270077,33.5464 27.3920269,33.5584 C27.5693923,33.5961778 27.7962962,33.5988444 27.9736615,33.5615111 C28.0258538,33.5486222 28.0709692,33.5286222 28.1059115,33.5032889 C28.1355462,33.4810667 28.1607577,33.4459556 28.1833154,33.4010667 C28.1979115,33.3752889 28.2182577,33.3130667 28.2182577,33.1850667 L28.2182577,30.1904 L30.4116615,30.1904 L30.4116615,33.1521778 C30.4116615,33.2855111 30.4342192,33.3508444 30.4466038,33.3784 C30.4691615,33.4281778 30.4965846,33.4655111 30.5213538,33.4886222 C30.5492192,33.5112889 30.5739885,33.5264 30.5987577,33.5339556 C30.6562577,33.5512889 30.6912,33.5539556 30.7137577,33.5539556 L31.6572,33.5539556 L31.6572,29.9552889 Z M16.4373923,33.5512889 C16.4427,33.3659556 16.4475654,33.1726222 16.4475654,32.9695111 C16.4475654,32.6437333 16.4298731,32.3526222 16.3949308,32.1095111 C16.3675077,31.8988444 16.3175269,31.7250667 16.2480846,31.5975111 C16.1927962,31.4975111 16.1255654,31.4246222 16.0379885,31.3739556 C15.9482,31.3219556 15.81595,31.2970667 15.6465462,31.2970667 C15.4815654,31.2970667 15.3471038,31.3268444 15.2493538,31.3824 C15.1423154,31.4468444 15.0547385,31.5299556 14.9875077,31.6326222 C14.9127577,31.7455111 14.8579115,31.8810667 14.8251808,32.0317333 C14.7880269,32.2046222 14.7703346,32.3828444 14.7703346,32.5579556 C14.7703346,32.9170667 14.8353538,33.1850667 14.9627385,33.3530667 C15.0848154,33.5161778 15.3793923,33.5512889 15.6040846,33.5512889 L16.4373923,33.5512889 Z M66.6670923,26.8810667 C66.6670923,27.4819556 66.1827654,27.9681778 65.5852077,27.9681778 C64.98765,27.9681778 64.5028808,27.4819556 64.5028808,26.8810667 C64.5028808,26.2806222 64.98765,25.7944 65.5852077,25.7944 C66.1827654,25.7944 66.6670923,26.2806222 66.6670923,26.8810667 Z M68.4533962,31.1818667 C68.6104154,31.5747556 68.6904731,32.0352 68.6904731,32.5507556 C68.6904731,33.0645333 68.6126269,33.5240889 68.4604731,33.9160889 C68.3030115,34.3196444 68.0774346,34.6618667 67.7899346,34.9325333 C67.5019923,35.2040889 67.1525692,35.4085333 66.7509538,35.5396444 C66.3683577,35.6649778 65.9410885,35.7280889 65.4841846,35.7280889 L58.6178,35.7280889 L58.6173577,35.7280889 L58.1892038,35.7280889 C57.8393385,35.7280889 57.4956654,35.6454222 57.1670308,35.4800889 C57.0113385,35.4018667 56.8706846,35.3134222 56.7459538,35.2156444 C56.6756269,35.2663111 56.6026462,35.3125333 56.5274538,35.3529778 C56.3354923,35.4560889 56.1382231,35.5374222 55.9422808,35.5938667 C55.7503192,35.6498667 55.5605692,35.6872 55.3778962,35.7045333 C55.2076077,35.7205333 55.0567808,35.7280889 54.9267423,35.7280889 L50.3753962,35.7280889 L50.3753962,33.6600889 L51.7200115,33.6600889 L51.7200115,28.9192 L53.9452615,28.9192 L53.9452615,33.6600889 L55.0594346,33.6600889 C55.0797808,33.6600889 55.1156077,33.6565333 55.1708962,33.6396444 C55.1978769,33.6320889 55.2222038,33.6169778 55.2487423,33.5943111 C55.2752808,33.5720889 55.3013769,33.5334222 55.3239346,33.4840889 C55.3341077,33.4627556 55.3579923,33.3965333 55.3579923,33.2600889 L55.3579923,26.8814222 L57.5823577,26.8814222 L57.5823577,33.0378667 C57.5823577,33.1694222 57.5987231,33.2765333 57.6310115,33.3560889 C57.6628577,33.4352 57.7004538,33.4965333 57.7442423,33.5396444 C57.78405,33.5800889 57.8265115,33.6076444 57.8747231,33.6245333 C57.9406269,33.6485333 58.0003385,33.6600889 58.0578385,33.6600889 L62.5552231,33.6600889 C62.4871077,33.5152 62.4269538,33.3578667 62.3752038,33.1916444 C62.3101846,32.9836444 62.2774538,32.7676444 62.2774538,32.5507556 C62.2774538,32.0494222 62.3575115,31.5974222 62.5154154,31.2076444 C62.6759731,30.8107556 62.9059731,30.4689778 63.2001077,30.1912 C63.4938,29.9138667 63.8414538,29.7040889 64.2342231,29.5654222 C64.9963192,29.2960889 65.9623192,29.2987556 66.7253,29.5516444 C67.1207231,29.6823111 67.4705885,29.8872 67.7651654,30.1614222 C68.0606269,30.4360889 68.2923962,30.7792 68.4533962,31.1818667 Z M66.4656654,32.5507556 C66.4656654,32.1698667 66.3807423,31.8800889 66.2060308,31.6649778 C66.0547615,31.4778667 65.8181269,31.3863111 65.4841846,31.3863111 C65.1498,31.3863111 64.9136077,31.4778667 64.7614538,31.6645333 C64.5863,31.8800889 64.5013769,32.1698667 64.5013769,32.5507556 C64.5013769,32.9289778 64.5876269,33.2156444 64.7636654,33.4267556 C64.9184731,33.6134222 65.1546654,33.7040889 65.4841846,33.7040889 C65.9225115,33.7040889 66.1051846,33.5458667 66.2047038,33.4267556 C66.3803,33.2156444 66.4656654,32.9289778 66.4656654,32.5507556 Z M47.1096615,31.5334222 C47.8673346,31.7649778 48.3883731,32.0787556 48.7046231,32.4934222 C49.0199885,32.9067556 49.1801038,33.3969778 49.1801038,33.9498667 C49.1801038,34.4129778 49.0916423,34.8414222 48.9178154,35.2227556 C48.7373538,35.6169778 48.4533923,35.9556444 48.07345,36.2307556 C47.7112,36.4934222 47.2498731,36.6952 46.7014115,36.8312 C46.1746231,36.9609778 45.5407962,37.0272 44.8162962,37.0272 C43.9683923,37.0272 43.2461038,36.8987556 42.6693346,36.6454222 C42.0801808,36.3872 41.5998346,36.0263111 41.2411231,35.5729778 C40.8890462,35.1267556 40.6356038,34.5983111 40.4878731,34.0005333 C40.3476615,33.4329778 40.2724692,32.8178667 40.26495,32.1720889 L40.2592,31.7018667 L42.3238923,31.7018667 L42.3238923,32.1658667 C42.3238923,32.7183111 42.3774115,33.1880889 42.4826808,33.5627556 C42.5799885,33.9076444 42.7268346,34.1898667 42.9192385,34.4000889 C43.1085462,34.6076444 43.3460654,34.7560889 43.64595,34.8534222 C43.9732577,34.9596444 44.37045,35.0138667 44.8273538,35.0138667 C45.1427192,35.0138667 45.4483538,34.9872 45.7349692,34.9334222 C46.0065462,34.8823111 46.24495,34.8049778 46.4417769,34.7045333 C46.6173731,34.6147556 46.7513923,34.5049778 46.8526808,34.3663111 C46.9367192,34.2512 46.9778538,34.1156444 46.9778538,33.9498667 C46.9778538,33.8760889 46.9672385,33.8152 46.9468923,33.7689778 C46.9442385,33.7636444 46.9247769,33.7232 46.8345462,33.6605333 C46.7628923,33.6103111 46.6266615,33.5303111 46.3856038,33.4325333 C46.1640077,33.3432 45.8796038,33.2400889 45.5407962,33.1267556 C44.8684885,32.9098667 44.3368346,32.5725333 43.9652962,32.1254222 C43.5796038,31.6609778 43.3841038,31.1120889 43.3841038,30.4934222 C43.3841038,30.1143111 43.4402769,29.7489778 43.5504115,29.4085333 C43.6654115,29.0529778 43.8454308,28.7360889 44.0869308,28.4663111 C44.3306423,28.1947556 44.6393731,27.9783111 45.0060462,27.8236444 C45.3674115,27.6703111 45.7933538,27.5925333 46.2710462,27.5925333 C47.0875462,27.5925333 47.7434885,27.8405333 48.2211808,28.3303111 C48.6878154,28.8076444 48.9545269,29.4796444 49.0137962,30.3280889 L49.0482962,30.8245333 L47.0769308,30.8245333 L47.0074885,30.4445333 C46.9561808,30.1632 46.8593154,29.9347556 46.7195462,29.7649778 C46.6505462,29.6805333 46.5373154,29.5840889 46.2710462,29.5840889 C46.0636038,29.5840889 45.9167577,29.6498667 45.7951231,29.7978667 C45.6549115,29.9685333 45.5867962,30.1960889 45.5867962,30.4934222 C45.5867962,30.6040889 45.6080269,30.6952 45.6518154,30.7720889 C45.7031231,30.8614222 45.7818538,30.9449778 45.8853538,31.0200889 C46.0114115,31.1112 46.1737385,31.1978667 46.3674692,31.2765333 C46.57845,31.3623111 46.8287962,31.4489778 47.1096615,31.5334222 Z M44.7197404,38.9127556 C44.7197404,39.5136444 44.2354135,39.9998667 43.6378558,39.9998667 C43.0402981,39.9998667 42.5555288,39.5136444 42.5555288,38.9127556 C42.5555288,38.3123111 43.0402981,37.8260889 43.6378558,37.8260889 C44.2354135,37.8260889 44.7197404,38.3123111 44.7197404,38.9127556 Z M47.62495,38.9127556 C47.62495,39.5136444 47.1406231,39.9998667 46.5430654,39.9998667 C45.9455077,39.9998667 45.4607385,39.5136444 45.4607385,38.9127556 C45.4607385,38.3123111 45.9455077,37.8260889 46.5430654,37.8260889 C47.1406231,37.8260889 47.62495,38.3123111 47.62495,38.9127556 Z M8.62955577,30.3264 C8.86928654,30.6681778 9.04045962,31.0837333 9.13776731,31.5606222 C9.22844038,32.0055111 9.27488269,32.5130667 9.27488269,33.0699556 C9.27488269,33.9375111 9.20234423,34.7201778 9.05947885,35.3957333 C8.90909423,36.1059556 8.64592115,36.7152889 8.27703654,37.2059556 C7.89974808,37.7095111 7.39463269,38.0952889 6.77584423,38.3539556 C6.17784423,38.6032889 5.43299808,38.7295111 4.56253654,38.7295111 C3.69295962,38.7295111 2.95828654,38.6090667 2.37974808,38.3721778 C1.783075,38.1268444 1.30051731,37.7757333 0.944459615,37.3281778 C0.595478846,36.8886222 0.349113462,36.3650667 0.211998077,35.7721778 C0.0828442308,35.2139556 0.0134019231,34.6028444 0.00588269231,33.9552889 L0.000132692308,33.4832889 L2.13249808,33.4832889 L2.13249808,33.9499556 C2.13249808,34.9375111 2.33640192,35.6415111 2.73845962,36.0424 C3.14095962,36.4441778 3.76240192,36.6481778 4.58465192,36.6481778 C5.26359423,36.6481778 5.79967115,36.5059556 6.17784423,36.2264 C6.39634423,36.0646222 6.57680577,35.8677333 6.72144038,35.6312889 L6.24817115,35.6312889 C5.80188269,35.6312889 5.38611346,35.5588444 5.01324808,35.4170667 C4.63330577,35.2726222 4.29803654,35.0606222 4.01717115,34.7868444 C3.73542115,34.5121778 3.51470962,34.1810667 3.36122885,33.8028444 C3.20995962,33.4281778 3.13299808,33.0095111 3.13299808,32.5570667 C3.13299808,32.1530667 3.17590192,31.7566222 3.260825,31.3788444 C3.352825,30.9708444 3.51780577,30.6041778 3.75222885,30.2886222 C3.99240192,29.9650667 4.31705577,29.7037333 4.71690192,29.5117333 C5.11188269,29.3219556 5.60063269,29.2264 6.170325,29.2264 C6.73780577,29.2264 7.228325,29.3192889 7.62772885,29.5024 C8.04217115,29.6926222 8.37920962,29.9699556 8.62955577,30.3264 Z M7.04786346,32.9695111 C7.04786346,32.3490667 6.97178654,31.8841778 6.82140192,31.5877333 C6.75240192,31.4526222 6.62103654,31.2966222 6.21499808,31.2966222 C6.04470962,31.2966222 5.90980577,31.3237333 5.81470962,31.3770667 C5.71474808,31.4326222 5.63822885,31.5032889 5.57984423,31.5948444 C5.51261346,31.7001778 5.46351731,31.8308444 5.434325,31.9824 C5.399825,32.1637333 5.38213269,32.3570667 5.38213269,32.5570667 C5.38213269,32.9397333 5.45024808,33.2144 5.57851731,33.3526222 C5.70015192,33.4837333 5.92572885,33.5499556 6.24817115,33.5499556 L7.04786346,33.5499556 L7.04786346,32.9695111 Z M5.72602692,26.888 C5.72602692,27.4915556 5.23860385,27.9817778 4.63750769,27.9817778 C4.03641154,27.9817778 3.54898846,27.4915556 3.54898846,26.888 C3.54898846,26.284 4.03641154,25.7942222 4.63750769,25.7942222 C5.23860385,25.7942222 5.72602692,26.284 5.72602692,26.888 Z M8.64919423,26.888 C8.64919423,27.4915556 8.16177115,27.9817778 7.560675,27.9817778 C6.95957885,27.9817778 6.47215577,27.4915556 6.47215577,26.888 C6.47215577,26.284 6.95957885,25.7942222 7.560675,25.7942222 C8.16177115,25.7942222 8.64919423,26.284 8.64919423,26.888 Z" id="Combined-Shape" fill="#FFFFFF"></path>
                <path d="M51.9923846,19.7671111 L51.9923846,17.3151111 L68.6903846,17.3151111 L68.6903846,19.7671111 L51.9923846,19.7671111 Z M67.8845,4.02648889 C68.8876538,4.76515556 69.0866923,6.39493333 67.7173077,7.39137778 C67.5195962,7.53582222 67.2776538,7.60693333 67.0335,7.60693333 L57.6495,7.60693333 L54.3591731,10.1251556 L48.8298846,10.1251556 L50.3549615,7.60693333 L41.8170962,7.60693333 C41.3380769,7.60693333 40.9519423,7.23048889 40.9382308,6.7496 C40.9236346,6.55715556 40.1053654,0.442488889 40.1053654,0.442488889 L44.1184231,0.442488889 L44.7628654,2.6016 L65.9507308,2.6016 L67.8845,4.02648889 Z M66.7176923,5.83982222 C66.8357885,5.83982222 66.9317692,5.74337778 66.9317692,5.62471111 C66.9317692,5.55671111 66.8990385,5.49182222 66.8446346,5.45137778 L65.3748462,4.36915556 L43.4545192,4.36915556 L42.9246346,2.2096 L42.0961923,2.2096 C42.1607692,2.68604444 42.5309808,5.35048889 42.5964423,5.83982222 L53.4895962,5.83982222 L51.7438077,8.69626667 L53.5373654,8.69626667 L56.6145,5.83982222 L66.7176923,5.83982222 Z" id="Combined-Shape" fill="#71BA80"></path>
            </g>
        </g>
    </g>
</svg>