<svg xmlns="http://www.w3.org/2000/svg" xmlns:xlink="http://www.w3.org/1999/xlink" width="40" height="40" viewBox="0 0 40 40">
    <defs>
        <rect id="a" width="40" height="40" rx="20"/>
    </defs>
    <g fill="none" fill-rule="evenodd">
        <g>
            <mask id="b" fill="#fff">
                <use xlink:href="#a"/>
            </mask>
            <use fill="#71BA80" xlink:href="#a"/>
            <path fill="#61AA70" d="M16.926 3.944l22.837.023.157 41.724-22.994.118z" mask="url(#b)" opacity=".5" transform="rotate(30 28.423 24.876)"/>
        </g>
        <path fill="#FFF" d="M14.294 17.738h13.358c1.846 0 3.348 1.51 3.348 3.368 0 1.858-1.502 3.369-3.348 3.369h-2.836l-3.542 5.347a.956.956 0 0 1-.796.428h-3.826a.956.956 0 0 1-.843-.508.97.97 0 0 1 .047-.989l2.835-4.278H11.87a.959.959 0 0 1-.928-.729l-1.913-7.7a.964.964 0 0 1 .928-1.196h1.913c.319 0 .617.16.795.428l1.63 2.46zM20.478 11c.334 0 .643.174.817.461l2.643 4.352h-6.07l-2.033-3.349a.968.968 0 0 1-.017-.972.955.955 0 0 1 .834-.492h3.826z"/>
    </g>
</svg>
