<?xml version="1.0" encoding="utf-8"?>
<!-- Generator: Adobe Illustrator 24.0.1, SVG Export Plug-In . SVG Version: 6.00 Build 0)  -->
<svg version="1.1" id="Layer_1" xmlns="http://www.w3.org/2000/svg" xmlns:xlink="http://www.w3.org/1999/xlink" x="0px" y="0px"
	 viewBox="0 0 284 232.5" style="enable-background:new 0 0 284 232.5;" xml:space="preserve">
<style type="text/css">
	.st0{fill:#A61E53;}
	.st1{fill:#EC5826;}
	.st2{fill:#D36228;}
	.st3{fill:#E12228;}
	.st4{fill:#F17523;}
	.st5{fill:#F36D24;}
	.st6{fill:#F99B20;}
	.st7{fill:#F05825;}
	.st8{fill:#BE223C;}
	.st9{fill:#F386AB;}
	.st10{fill:#E65782;}
	.st11{fill:#BA265D;}
	.st12{fill:#D1257E;}
	.st13{fill:#F48654;}
	.st14{fill:#B9276B;}
	.st15{fill:#D43D27;}
	.st16{fill:#BC3328;}
	.st17{fill:#D52328;}
	.st18{fill:#B12225;}
	.st19{fill:#F99B1F;}
	.st20{fill:#ED4E99;}
	.st21{fill:#FCBD73;}
	.st22{fill:#EE4D62;}
	.st23{fill:#FCBE92;}
	.st24{fill:#F68E76;}
	.st25{fill:#C81E51;}
	.st26{fill:#D21F3C;}
	.st27{fill:#E65696;}
	.st28{fill:#E71A60;}
	.st29{fill:#FFC818;}
	.st30{fill:#F8EC22;}
	.st31{fill:#FDE986;}
	.st32{fill:#D41D4F;}
	.st33{fill:#FBEE41;}
	.st34{fill:#F9F182;}
	.st35{fill:#FFF5AA;}
	.st36{fill:#FBD93E;}
	.st37{fill:#FDE560;}
	.st38{fill:#FBBE57;}
	.st39{fill:#F6ED55;}
	.st40{fill:#FCDD4F;}
	.st41{fill:#DA2138;}
	.st42{fill:#F68624;}
	.st43{fill:#FAB818;}
	.st44{fill:#FFC810;}
	.st45{fill:#FBBD16;}
	.st46{fill:#E34027;}
	.st47{fill:#ED2A26;}
	.st48{fill:#D43F27;}
	.st49{fill:#F05829;}
	.st50{fill:#46B549;}
	.st51{fill:#F9B16F;}
	.st52{fill:#B83090;}
	.st53{fill:#C3394F;}
	.st54{fill:#EA2727;}
	.st55{fill:#BE1E6D;}
	.st56{fill:#BC2327;}
	.st57{fill:#DC392B;}
	.st58{fill:#F47D62;}
	.st59{fill:#C13988;}
	.st60{fill:#951D20;}
	.st61{fill:#C52128;}
	.st62{fill:#FDE15A;}
	.st63{fill:#DA2228;}
	.st64{fill:#FFD111;}
	.st65{fill:#EE4623;}
	.st66{fill:#C1198B;}
	.st67{fill:#FBF176;}
	.st68{fill:#F7EF70;}
	.st69{fill:#FFC952;}
	.st70{fill:#6D2C89;}
	.st71{fill:#A4276C;}
	.st72{fill:#DD156D;}
</style>
<g>
	<g>
		<path class="st0" d="M12.12,183.11h3.71v16.47h7.45v3.11H12.12V183.11z"/>
		<path class="st0" d="M29.33,183.11h10.26v3.13h-6.55v4.61h5.93v3.09h-5.93v5.69h6.89v3.07H29.33V183.11z"/>
		<path class="st0" d="M59.6,188.4l-3.7,0.79c-0.38-2.12-1.32-3.18-2.82-3.18c-0.78,0-1.43,0.25-1.96,0.76
			c-0.53,0.5-0.88,1.19-1.07,2.06c-0.19,0.87-0.28,2.13-0.28,3.78c0,2.17,0.11,3.71,0.32,4.62c0.21,0.9,0.61,1.57,1.2,2
			c0.59,0.43,1.24,0.64,1.94,0.64c0.53,0,1.05-0.1,1.54-0.29c0.5-0.19,0.98-0.47,1.44-0.85v-3.26h-2.92v-3.1h6.64v8.24
			c-1.34,1.02-2.55,1.67-3.6,1.97c-1.06,0.3-2.17,0.45-3.32,0.45c-2.26,0-4.01-0.78-5.24-2.34c-1.23-1.56-1.85-4.04-1.85-7.44
			c0-1.74,0.11-3.26,0.34-4.53c0.23-1.28,0.71-2.39,1.45-3.34c0.74-0.95,1.56-1.62,2.46-2.01c0.9-0.39,1.94-0.59,3.14-0.59
			c1.83,0,3.26,0.43,4.3,1.29C58.63,184.92,59.3,186.37,59.6,188.4z"/>
		<path class="st0" d="M70.58,183.11h4.04l5.54,19.58h-3.87l-0.9-3.87h-5.66l-0.92,3.87h-3.85L70.58,183.11z M74.65,195.61
			l-2.06-8.87l-2.1,8.87H74.65z"/>
		<path class="st0" d="M97.82,188.48l-3.74,0.83c-0.28-2.2-1.1-3.3-2.43-3.3c-0.61,0-1.12,0.19-1.53,0.58
			c-0.41,0.39-0.72,0.97-0.92,1.75c-0.2,0.78-0.3,2.24-0.3,4.39c0,2.03,0.08,3.49,0.25,4.37c0.17,0.89,0.48,1.56,0.94,2.01
			c0.45,0.45,0.98,0.68,1.59,0.68c1.51,0,2.4-1.37,2.66-4.11l3.65,1.19c-0.57,4.1-2.65,6.16-6.24,6.16c-2.23,0-3.9-0.82-5.01-2.47
			c-1.11-1.65-1.67-4.12-1.67-7.41c0-2.47,0.2-4.41,0.59-5.83c0.4-1.42,1.11-2.53,2.15-3.33c1.04-0.8,2.34-1.2,3.89-1.2
			c1.69,0,3.04,0.44,4.04,1.32C96.75,184.98,97.44,186.44,97.82,188.48z"/>
		<path class="st0" d="M102.31,183.11h4.33l3.32,7.82l3.26-7.82h4.26l-5.74,11.37v8.22h-3.69v-8.22L102.31,183.11z"/>
		<path class="st0" d="M164.47,183.11h5.7c0.96,0,1.85,0.14,2.65,0.41s1.49,0.8,2.04,1.59c0.55,0.79,0.83,1.74,0.83,2.85
			c0,1.08-0.26,1.98-0.77,2.71c-0.51,0.73-1.28,1.29-2.3,1.67c1.29,0.25,2.25,0.78,2.9,1.6c0.64,0.82,0.97,1.91,0.97,3.29
			c0,1.07-0.24,2.05-0.72,2.95c-0.48,0.89-1.16,1.54-2.04,1.93c-0.88,0.39-1.95,0.59-3.21,0.59h-6.04V183.11z M168.12,191h1.03
			c0.98,0,1.71-0.2,2.19-0.6c0.48-0.4,0.73-1,0.73-1.79c0-0.77-0.23-1.36-0.68-1.74c-0.45-0.39-1.13-0.58-2.04-0.58h-1.23V191z
			 M168.12,199.51h1.23c1.23,0,2.09-0.24,2.56-0.73c0.47-0.49,0.71-1.15,0.71-2c0-0.59-0.13-1.08-0.38-1.49
			c-0.25-0.41-0.59-0.69-1-0.86c-0.41-0.17-1.04-0.25-1.9-0.25h-1.23V199.51z"/>
		<path class="st0" d="M183.18,183.11h10.26v3.13h-6.55v4.61h5.93v3.09h-5.93v5.69h6.89v3.07h-10.61V183.11z"/>
		<path class="st0" d="M198.45,183.11h4.33l3.32,7.82l3.26-7.82h4.26l-5.74,11.37v8.22h-3.69v-8.22L198.45,183.11z"/>
		<path class="st0" d="M225.08,182.77c2.4,0,4.2,0.84,5.38,2.51c1.18,1.67,1.78,4.3,1.78,7.88c0,2.47-0.28,4.39-0.85,5.77
			c-0.57,1.38-1.37,2.41-2.42,3.08c-1.05,0.67-2.33,1.01-3.85,1.01c-1.34,0-2.43-0.22-3.29-0.67c-0.86-0.44-1.59-1.15-2.2-2.11
			c-0.61-0.96-1.03-2.08-1.27-3.36c-0.24-1.28-0.35-2.69-0.35-4.24c0-3.3,0.59-5.76,1.77-7.41
			C220.96,183.59,222.73,182.77,225.08,182.77z M221.87,193.59c0,2.38,0.3,4.01,0.9,4.9c0.6,0.89,1.39,1.34,2.39,1.34
			c0.82,0,1.52-0.3,2.09-0.89c0.57-0.59,0.92-1.46,1.02-2.59c0.11-1.14,0.16-2.55,0.16-4.23c0-2.36-0.31-3.97-0.94-4.83
			c-0.62-0.86-1.41-1.29-2.36-1.29c-0.77,0-1.44,0.29-2.01,0.88c-0.57,0.58-0.9,1.33-1.02,2.24
			C221.99,190.04,221.91,191.53,221.87,193.59z"/>
		<path class="st0" d="M238.99,183.11h3.8l5.68,12.33v-12.33h3.46v19.58h-3.63l-6.09-12.82l0.19,12.82h-3.39V183.11z"/>
		<path class="st0" d="M259.47,183.11h6.11c1.52,0,2.71,0.17,3.55,0.51c0.84,0.34,1.57,0.93,2.18,1.76
			c0.61,0.83,1.05,1.74,1.31,2.75c0.26,1,0.39,2.36,0.39,4.07c0,1.77-0.08,3.29-0.25,4.57c-0.17,1.27-0.58,2.4-1.24,3.37
			c-0.65,0.98-1.4,1.65-2.22,2.01c-0.83,0.37-1.97,0.55-3.42,0.55h-6.4V183.11z M263.19,186.21v13.41h1.68
			c1.18,0,2.05-0.16,2.6-0.47c0.55-0.32,0.97-0.92,1.27-1.8c0.3-0.89,0.45-2.37,0.45-4.44c0-1.97-0.14-3.4-0.41-4.31
			c-0.27-0.9-0.7-1.53-1.29-1.87c-0.59-0.34-1.54-0.51-2.85-0.51H263.19z"/>
	</g>
	<g>
		<path class="st1" d="M282.33,72.49c-0.27-2.4-0.63-4.74-1.1-7.03c-0.76-3.7-1.76-7.26-3.02-10.64c-0.09-0.26-0.2-0.5-0.3-0.76
			c-0.34-0.86-0.68-1.71-1.04-2.55c-3.95-9.11-9.62-16.79-16.93-22.94c-2.26-1.9-4.68-3.66-7.24-5.27
			c-1.36-0.85-2.76-1.68-4.21-2.45c-1.67-0.89-3.37-1.71-5.09-2.48c-0.14-0.06-0.27-0.12-0.41-0.18c-4.55-2-9.25-3.56-14.08-4.67
			c-5.95-1.37-12.09-2.07-18.39-2.07c-1.69,0-3.38,0.05-5.05,0.15c-4.28,0.26-8.48,0.84-12.59,1.75c-7.06,1.55-13.85,4.06-20.31,7.5
			c-4.17,2.21-7.97,4.78-11.41,7.67c-3,2.52-5.73,5.3-8.17,8.32c-0.42,0.51-0.82,1.04-1.21,1.57c-3.67,4.86-6.66,10.32-8.93,16.38
			c-1.19,3.13-2.15,6.41-2.88,9.84c0,0.02-0.01,0.03-0.01,0.05c-1.19,5.55-1.8,11.47-1.8,17.7c0,3.77,0.22,7.42,0.66,10.95
			c0.58,4.65,1.54,9.08,2.87,13.26c0.36,1.13,0.74,2.25,1.16,3.35c0.75,2.01,1.59,3.95,2.5,5.83c1.59,3.3,3.42,6.4,5.49,9.29
			c5.57,7.8,12.84,14.11,21.74,18.84c0.31,0.16,0.62,0.32,0.93,0.48c0.62,0.32,1.24,0.63,1.86,0.93c5.67,2.75,11.58,4.8,17.68,6.13
			c5.67,1.24,11.51,1.86,17.49,1.86c4.94,0,9.79-0.43,14.53-1.28c0.71-0.13,1.42-0.27,2.12-0.41c4.67-0.97,9.22-2.35,13.64-4.14
			c2.6-1.05,5.15-2.24,7.66-3.57c4.19-2.23,8.01-4.8,11.47-7.71c0.11-0.09,0.21-0.17,0.32-0.26c3.41-2.9,6.45-6.15,9.12-9.7
			c3.62-4.81,6.57-10.2,8.82-16.17c3.11-8.29,4.68-17.58,4.68-27.62C282.88,79.02,282.69,75.71,282.33,72.49z M230.43,116.47
			c-5.65,3.23-11.45,4.97-17.65,5.3c-0.75,0.04-1.5,0.07-2.26,0.07c-7.2,0-13.69-1.75-19.95-5.4c-0.71-0.4-1.39-0.84-2.06-1.28
			c-0.1-0.07-0.21-0.12-0.31-0.19c-5.81-3.94-9.88-9.38-12.39-16.65c-1.19-3.3-1.95-6.98-2.3-10.98c-0.13-1.59-0.21-3.22-0.21-4.91
			c0-9.79,1.93-17.55,5.84-23.55c0.8-1.22,1.67-2.37,2.63-3.45c1.1-1.21,2.24-2.32,3.42-3.36c7-6.16,15.33-9.18,25.33-9.18
			c1.83,0,3.68,0.13,5.55,0.38c1.45,0.19,2.92,0.44,4.38,0.77c7.4,1.92,13.53,5.62,18.75,11.31c0.08,0.09,0.15,0.19,0.23,0.28
			c3.12,3.71,5.35,8.08,6.71,13.22c0.46,1.73,0.82,3.56,1.08,5.47c0.35,2.54,0.52,5.24,0.52,8.1c0,5.54-0.75,10.56-2.2,14.97
			c-0.11,0.31-0.2,0.63-0.31,0.94c-2.84,7.91-7.43,13.67-13.99,17.63C230.96,116.13,230.71,116.31,230.43,116.47z"/>
		<path class="st2" d="M113.72,87.82h-5.14v-7.78v-23V43.55v-5.74V27.57V11.56h-6.72H88.85h-4.98H80.3l-0.72,0.75L78.92,13
			l-3.53,3.66L64.95,27.49L48.52,44.54l-2,2.07l-3.21,3.33L30.42,63.33l-3.68,3.81l-8.62,8.95l-4.75,4.92l-0.01,0.01
			c0.53,0.37,1.22,0.87,1.93,1.4c-0.64-0.47-1.28-0.95-1.93-1.4L3.63,91.14l-1.39,1.44v12.21v7.61v7.59h11.94h7.3h15.14h5.17h5.16
			h11.49h14.7v4.71v13.12v9.14v6.44h17.29h0.44h6.09h5.36h4.32h1.93v-6.42v-7.48v-16.66v-2.84h6.7h1.4v-8.28v-9.13V87.82H113.72z
			 M58.12,101.48c0.01-0.02,0.01-0.05,0.02-0.07c4.35-1.13,8.63-2.29,12.66-3.23c2.98-0.7,5.73-1.24,8.35-1.64
			c-0.09-3.54-0.35-7.17-0.71-10.7c0.39,3.57,0.67,7.22,0.75,10.76c-2.62,0.4-5.37,0.95-8.35,1.64
			C66.79,99.18,62.48,100.35,58.12,101.48z M62.92,88.95c0,0.02-0.01,0.04-0.01,0.06h-8.94H51.4l9.18-9.7l12.91-13.69v23.33H62.92z
			 M76.05,52.32c0.14-0.28,0.29-0.56,0.44-0.86C76.34,51.76,76.2,52.04,76.05,52.32z M74.69,63.87c0,0,0,0.01,0,0.01
			c-0.01,0.02-0.02,0.03-0.03,0.05C74.67,63.91,74.68,63.89,74.69,63.87z M34.11,73.47c0.04-0.04,0.08-0.08,0.12-0.12
			C34.23,73.35,34.18,73.4,34.11,73.47z M33.65,73.9C33.65,73.9,33.65,73.9,33.65,73.9c0,0-0.01-0.01-0.01-0.02c0,0,0,0,0,0
			c-0.02-0.11-0.05-0.23-0.08-0.34C33.59,73.67,33.62,73.78,33.65,73.9z M33.59,73.97L33.59,73.97c-3.47,3.34-7.41,6.86-12.39,9.96
			C26.14,80.83,30.16,77.27,33.59,73.97z M19.11,85.18c0.03-0.01,0.05-0.03,0.08-0.05C19.18,85.15,19.14,85.16,19.11,85.18z
			 M18.98,85.22c-0.04,0.02-0.11,0.05-0.2,0.09c0.06-0.03,0.13-0.07,0.19-0.1C18.98,85.21,18.98,85.21,18.98,85.22z"/>
		<g>
			<path class="st3" d="M155.78,99.82c-5.79-3.32-7.58-8.69-8.78-14.72c-1,1.74-2.21,3.31-3.75,4.63c-1.47,1.26-2.95,2.45-4.43,3.59
				c0.58,4.65,1.54,9.08,2.87,13.26c0.32-0.11,0.64-0.21,0.97-0.3C147.98,104.95,152.3,102.77,155.78,99.82z"/>
			<path class="st4" d="M179.15,58.88c-2.61-0.42-4.73-1.21-6.85-2c-3.09,6.9-4.39,16.07-6.02,23.39c2.38,2.17,4.87,4.59,7.24,7.07
				c-0.13-1.59-0.21-3.22-0.21-4.91C173.31,72.64,175.24,64.88,179.15,58.88z"/>
			<path class="st5" d="M181.78,55.43c1.1-1.21,2.24-2.32,3.42-3.36c-0.79-2-1.82-3.59-3.1-4.99c-0.46,0.19-0.93,0.38-1.41,0.57
				c-3.84,1.52-6.47,4.94-8.39,9.23c2.12,0.79,4.24,1.59,6.85,2C179.94,57.66,180.82,56.51,181.78,55.43z"/>
			<path class="st6" d="M210.52,42.9c1.83,0,3.68,0.13,5.55,0.38c0.06-0.1,0.13-0.21,0.19-0.31c-8.16-0.67-13.05-4.25-20.51-5.78
				c-3.33,5.09-7.59,7.42-13.66,9.89c1.28,1.4,2.31,2.99,3.1,4.99C192.19,45.92,200.52,42.9,210.52,42.9z"/>
			<path class="st2" d="M158.24,121.24c3.45-1.83,6.49-3.72,9.17-6.54c-1.77-5.78-4.1-11.45-9.77-13.94
				c-0.67-0.29-1.28-0.61-1.86-0.94c-3.47,2.95-7.8,5.13-13.12,6.46c-0.33,0.08-0.65,0.19-0.97,0.3c0.36,1.13,0.74,2.25,1.16,3.35
				c0.75,2.01,1.59,3.95,2.5,5.83c0.92,0.2,1.86,0.44,2.84,0.77C152.12,117.84,155.38,119.3,158.24,121.24z"/>
			<path class="st7" d="M147,85.1c-0.96-4.84-1.56-10.1-3.55-15.08c-0.9-2.26-2.1-4-3.49-5.35c-1.19,5.55-1.8,11.47-1.8,17.7
				c0,3.77,0.22,7.42,0.66,10.95c1.48-1.14,2.96-2.33,4.43-3.59C144.79,88.41,146,86.84,147,85.1z"/>
			<path class="st8" d="M190.58,116.45c-0.71-0.4-1.39-0.84-2.06-1.28c1.47,3.37,3.88,6.59,8.53,9.25
				c4.23,2.41,9.84,2.98,15.69,3.78c0.1-0.94,0.14-1.93,0.08-2.99c-0.07-1.13-0.07-2.28-0.04-3.43c-0.75,0.04-1.5,0.07-2.26,0.07
				C203.32,121.84,196.83,120.1,190.58,116.45z"/>
			<path class="st9" d="M247.22,74.33c0.35,2.54,0.52,5.24,0.52,8.1c0,5.54-0.75,10.56-2.2,14.97c2.81,1.19,5.49,3.01,7.28,5.82
				c0.05,0.08,0.1,0.16,0.15,0.24c4.97-4.42,9.4-10.43,10.3-18.47c0.29-2.63,0.56-5.12,0.84-7.45c-1.5-0.8-3.32-1.48-5.57-2
				C254.4,74.58,250.65,74.28,247.22,74.33z"/>
			<path class="st10" d="M282.33,72.49c-1.08-0.2-2.24-0.41-3.49-0.69c-1.31,3.99-2.36,8.22-2.96,12.41
				c-0.83,5.82-2.44,8.61-4.38,10.51c0.54,5.18,1.64,10.6,6.71,15.32c3.11-8.29,4.68-17.58,4.68-27.62
				C282.88,79.02,282.69,75.71,282.33,72.49z"/>
			<path class="st11" d="M259.11,114.42c-0.86,6.67-0.26,14.46,0.78,21.43c0.02,0.11,0.03,0.23,0.05,0.34
				c0.11-0.09,0.21-0.17,0.32-0.26c3.41-2.9,6.45-6.15,9.12-9.7C264.94,123.1,261.72,118.75,259.11,114.42z"/>
			<path class="st12" d="M260.11,109.43c-0.45,1.56-0.77,3.23-1,4.98c2.6,4.33,5.82,8.68,10.27,11.8c3.62-4.81,6.57-10.2,8.82-16.17
				c-5.07-4.72-6.17-10.15-6.71-15.32C267.9,98.24,263.18,98.7,260.11,109.43z"/>
			<path class="st13" d="M246.15,68.86c0.46,1.73,0.82,3.56,1.08,5.47c3.43-0.05,7.17,0.25,11.31,1.21c2.25,0.52,4.07,1.2,5.57,2
				c0.46-3.84,0.98-7.25,1.74-10.16c-3.58-1.65-6.37-3.59-8.6-5.69C254.38,64.69,250.23,66.74,246.15,68.86z"/>
			<path class="st14" d="M242.77,131.51c-4.6-2.15-7.05-5.49-8.93-9.37c-1.22,3.71-1.9,8.01-2.06,12.62
				c2.38,1.92,4.51,4.43,6.26,7.79c0.91,1.75,1.84,3.39,2.77,4.92c2.6-1.05,5.15-2.24,7.66-3.57c4.19-2.23,8.01-4.8,11.47-7.71
				c-0.02-0.11-0.03-0.23-0.05-0.34C254.01,134.62,248.39,134.13,242.77,131.51z"/>
			<path class="st15" d="M148.18,116.53c-0.98-0.33-1.92-0.57-2.84-0.77c1.59,3.3,3.42,6.4,5.49,9.29c2.66-1.41,5.13-2.6,7.41-3.81
				C155.38,119.3,152.12,117.84,148.18,116.53z"/>
			<path class="st16" d="M174.38,143.46c-2.02-3.8-4.04-7.52-5.71-10.38c-3.22-5.51-6.44-9.14-10.43-11.84
				c-2.28,1.21-4.75,2.4-7.41,3.81c5.57,7.8,12.84,14.11,21.74,18.84c0.31,0.16,0.62,0.32,0.93,0.48
				C173.77,144.06,174.06,143.76,174.38,143.46z"/>
			<path class="st17" d="M185.11,132.88c-1.64,3.02-4.29,6.03-8.56,8.87c-0.82,0.55-1.54,1.12-2.17,1.71
				c-0.32,0.3-0.61,0.6-0.89,0.9c0.62,0.32,1.24,0.63,1.86,0.93c5.67,2.75,11.58,4.8,17.68,6.13c0.42-0.92,0.96-1.79,1.65-2.58
				c3.8-4.34,11.34-7.56,15.41-13.53C203.08,132.89,197.52,135.29,185.11,132.88z"/>
			<path class="st0" d="M238.04,142.54c-1.75-3.36-3.89-5.87-6.26-7.79c-0.03,0.75-0.04,1.51-0.04,2.27c0,4.77-2.31,9.28-5.32,13.28
				c-0.44,0.58-0.89,1.15-1.36,1.71c0.71-0.13,1.42-0.27,2.12-0.41c4.67-0.97,9.22-2.35,13.64-4.14
				C239.88,145.93,238.95,144.29,238.04,142.54z"/>
			<path class="st18" d="M210.45,135.45c-0.12-0.05-0.24-0.08-0.36-0.12c-4.07,5.96-11.6,9.18-15.41,13.53
				c-0.69,0.79-1.23,1.66-1.65,2.58c5.67,1.24,11.51,1.86,17.49,1.86c4.94,0,9.79-0.43,14.53-1.28c0.46-0.56,0.92-1.13,1.36-1.71
				C222.55,143.82,218,138.23,210.45,135.45z"/>
			<path class="st19" d="M163.94,36.52c0.91-0.21,1.82-0.46,2.72-0.74c-2.38-1.88-4.17-4.42-5.5-7.26c-3,2.52-5.73,5.3-8.17,8.32
				C156.61,37.31,160.28,37.37,163.94,36.52z"/>
			<path class="st20" d="M264.11,77.54c-0.28,2.34-0.55,4.83-0.84,7.45c-0.89,8.04-5.33,14.05-10.3,18.47
				c1.85,2.96,3.74,6.94,6.15,10.95c0.22-1.75,0.55-3.42,1-4.98c3.07-10.74,7.79-11.2,11.38-14.71
				C270.77,87.76,271.05,81.27,264.11,77.54z"/>
			<path class="st21" d="M259.72,44.78c3.47-0.64,6.68,0.59,11.63,3.56c1.83,1.1,3.69,2.16,5.51,3.16
				c-3.95-9.11-9.62-16.79-16.93-22.94c-1.84,2.16-3.12,4.19-3.27,5.79C256.39,37.3,258.29,40.82,259.72,44.78z"/>
			<path class="st22" d="M265.84,67.39c-0.76,2.91-1.28,6.32-1.74,10.16c6.95,3.72,6.67,10.22,7.39,17.18
				c1.94-1.9,3.55-4.7,4.38-10.51c0.6-4.18,1.65-8.42,2.96-12.41c-3.27-0.72-7.21-1.85-12.42-4.15
				C266.22,67.57,266.04,67.48,265.84,67.39z"/>
			<path class="st23" d="M259.72,44.78c1.54,4.29,2.53,9.08-0.39,14.2c-0.57,1-1.28,1.89-2.08,2.72c2.23,2.1,5.02,4.04,8.6,5.69
				c1.28-4.89,3.25-8.37,6.88-9.98c1.5-0.67,3.29-1.87,5.18-3.35c-0.34-0.86-0.68-1.71-1.04-2.55c-1.82-1-3.68-2.07-5.51-3.16
				C266.39,45.37,263.18,44.15,259.72,44.78z"/>
			<path class="st24" d="M281.22,65.46c-0.76-3.7-1.76-7.26-3.02-10.64c-0.09-0.26-0.2-0.5-0.3-0.76c-1.88,1.48-3.67,2.68-5.18,3.35
				c-3.62,1.61-5.6,5.08-6.88,9.98c0.19,0.09,0.37,0.18,0.57,0.27c5.21,2.29,9.15,3.42,12.42,4.15c1.25,0.27,2.4,0.49,3.49,0.69
				C282.06,70.09,281.69,67.75,281.22,65.46z"/>
			<path class="st25" d="M230.43,116.47c-5.65,3.23-11.45,4.97-17.65,5.3c-0.03,1.15-0.03,2.3,0.04,3.43
				c0.06,1.06,0.03,2.05-0.08,2.99c6.6,0.9,13.49,2.09,19.04,6.56c0.16-4.6,0.84-8.9,2.06-12.62c-0.94-1.95-1.75-4.03-2.61-6.17
				C230.96,116.13,230.71,116.31,230.43,116.47z"/>
			<path class="st26" d="M210.09,135.32c0.12,0.04,0.24,0.08,0.36,0.12c7.55,2.78,12.1,8.37,15.96,14.85
				c3.01-4,5.32-8.51,5.32-13.28c0-0.76,0.01-1.52,0.04-2.27c-5.55-4.47-12.44-5.66-19.04-6.56
				C212.43,130.98,211.46,133.31,210.09,135.32z"/>
			<path class="st27" d="M241.98,111.01c3.08-1.71,7.19-4.16,10.99-7.54c-0.05-0.08-0.1-0.16-0.15-0.24
				c-1.79-2.82-4.47-4.64-7.28-5.82c-0.11,0.31-0.2,0.63-0.31,0.94c-2.84,7.91-7.43,13.67-13.99,17.63
				c0.86,2.14,1.66,4.22,2.61,6.17C235.49,117.09,238.16,113.13,241.98,111.01z"/>
			<path class="st28" d="M241.98,111.01c-3.82,2.12-6.49,6.08-8.14,11.12c1.88,3.88,4.33,7.23,8.93,9.37
				c5.62,2.62,11.24,3.11,17.12,4.34c-1.04-6.97-1.64-14.76-0.78-21.43c-2.41-4.01-4.3-7.99-6.15-10.95
				C249.17,106.85,245.05,109.3,241.98,111.01z"/>
			<path class="st29" d="M154.48,44.8c0.87,2.31,0.89,6.2,0.95,10.51c0.01,0,0.02,0,0.03-0.01c2.69-6.76,7.27-12.63,16.48-15.81
				c-1.5-1-3.11-2.1-4.84-3.37c-0.15-0.11-0.29-0.23-0.43-0.35c-0.9,0.27-1.81,0.53-2.72,0.74c-3.67,0.85-7.33,0.79-10.95,0.32
				c-0.42,0.51-0.81,1.04-1.21,1.57C152.87,40.64,153.72,42.76,154.48,44.8z"/>
			<path class="st30" d="M166.67,35.78c11.78-3.58,22.82-12.14,34.72-13.06c-2.56-3.03-5.5-6.24-8.5-9.37
				c-7.06,1.55-13.85,4.06-20.31,7.5c-4.17,2.21-7.97,4.78-11.41,7.67C162.49,31.36,164.28,33.9,166.67,35.78z"/>
			<path class="st31" d="M239.64,36.66c-0.03,0.31-0.06,0.62-0.09,0.93c5.01,2.56,7.11,7.44,9.79,12.76
				c4.4-3.19,7.49-5.03,10.38-5.56c-1.43-3.96-3.32-7.49-3.05-10.43c0.15-1.59,1.43-3.63,3.27-5.79c-2.26-1.9-4.68-3.66-7.24-5.27
				C248.97,27.68,245.04,32.76,239.64,36.66z"/>
			<path class="st32" d="M197.05,124.41c-4.65-2.66-7.06-5.88-8.53-9.25c-0.1-0.07-0.21-0.12-0.31-0.19
				c-0.4,3.05-0.62,5.6-0.62,7.08c0,3.46-0.49,7.16-2.48,10.84c12.4,2.41,17.97,0.01,24.98,2.44c1.37-2.01,2.34-4.34,2.65-7.13
				C206.89,127.39,201.28,126.83,197.05,124.41z"/>
			<path class="st33" d="M225.28,24.04c1.19-3.38,2.32-6.95,3.63-10.51c-5.95-1.37-12.09-2.07-18.39-2.07
				c-1.69,0-3.38,0.05-5.05,0.15c-1.74,3.75-3.2,7.54-4.09,11.12C208.44,22.18,215.81,24.92,225.28,24.04z"/>
			<path class="st34" d="M205.48,11.6c-4.28,0.26-8.48,0.84-12.59,1.75c3,3.13,5.94,6.34,8.5,9.37
				C202.28,19.14,203.74,15.36,205.48,11.6z"/>
			<path class="st35" d="M252.69,23.3c-1.36-0.85-2.76-1.68-4.21-2.45c-1.67-0.89-3.37-1.71-5.09-2.48
				c-1.8,5.24-3.06,11.65-3.75,18.28C245.04,32.76,248.97,27.68,252.69,23.3z"/>
			<path class="st36" d="M242.99,18.2c-4.55-2-9.25-3.56-14.08-4.67c-1.31,3.56-2.44,7.13-3.63,10.51
				C230.46,23.55,236.26,21.98,242.99,18.2z"/>
			<path class="st37" d="M242.99,18.2c-6.73,3.78-12.53,5.35-17.7,5.84c-0.92,2.61-1.88,5.1-3.01,7.36
				c-0.31,0.62-0.62,1.24-0.92,1.86c5.51,1.03,11.18,1.59,16.69,3.66c0.27,0.1,0.52,0.22,0.77,0.33c0.25,0.11,0.5,0.23,0.74,0.35
				c0.03-0.31,0.06-0.62,0.09-0.93c0.69-6.63,1.94-13.04,3.75-18.28C243.26,18.32,243.12,18.26,242.99,18.2z"/>
			<path class="st38" d="M257.24,61.7c0.8-0.83,1.51-1.72,2.08-2.72c2.92-5.12,1.93-9.92,0.39-14.2c-2.89,0.53-5.97,2.37-10.38,5.56
				C251.24,54.13,253.46,58.14,257.24,61.7z"/>
			<path class="st36" d="M226.02,42.43c5.11-0.89,9.26-2.78,12.8-5.19c-0.25-0.11-0.51-0.23-0.77-0.33
				c-5.51-2.07-11.17-2.63-16.69-3.66c-1.63,3.32-3.2,6.57-5.09,9.72C219.06,43.2,222.22,43.09,226.02,42.43z"/>
			<path class="st39" d="M221.35,33.26c0.3-0.62,0.61-1.24,0.92-1.86c1.13-2.26,2.09-4.75,3.01-7.36
				c-9.48,0.89-16.84-1.85-23.9-1.31C207.38,29.83,214.24,31.93,221.35,33.26z"/>
			<path class="st40" d="M216.26,42.97c1.89-3.15,3.46-6.39,5.09-9.72c-7.11-1.33-13.98-3.43-19.97-10.53
				c-1.65,6.58-3.44,11.12-5.63,14.47C203.22,38.72,208.11,42.31,216.26,42.97z"/>
			<path class="st41" d="M188.21,114.97c-5.81-3.94-9.88-9.38-12.39-16.65c-2.32,7.98-5.09,12.89-8.41,16.38
				c2.17,7.06,3.51,14.28,9.15,16.02c3.19,0.98,6.01,1.67,8.56,2.17c1.99-3.67,2.48-7.37,2.48-10.84
				C187.59,120.57,187.81,118.01,188.21,114.97z"/>
			<path class="st42" d="M239.44,55.65c3.12,3.71,5.35,8.08,6.71,13.22c4.08-2.12,8.23-4.17,11.1-7.16c-3.78-3.56-6-7.57-7.91-11.35
				c-0.83,0.6-1.69,1.24-2.63,1.94C244.79,53.73,242.3,54.82,239.44,55.65z"/>
			<path class="st43" d="M216.26,42.97c-0.06,0.1-0.12,0.21-0.19,0.31c1.45,0.19,2.92,0.44,4.38,0.77
				c7.4,1.92,13.53,5.62,18.75,11.31c-0.35-5.61-0.23-11.76,0.34-17.78c-0.24-0.12-0.48-0.24-0.74-0.35
				c-3.53,2.41-7.69,4.3-12.8,5.19C222.22,43.09,219.06,43.2,216.26,42.97z"/>
			<path class="st44" d="M182.1,47.09c6.06-2.47,10.32-4.8,13.66-9.89c-5.24-1.07-11.75-1.12-21.57,1.59
				c-0.78,0.22-1.52,0.46-2.25,0.71C176.28,42.38,179.65,44.39,182.1,47.09z"/>
			<path class="st36" d="M239.21,55.37c0.08,0.09,0.15,0.19,0.23,0.28c2.87-0.83,5.35-1.92,7.27-3.36c0.93-0.7,1.8-1.33,2.63-1.94
				c-2.68-5.32-4.77-10.19-9.79-12.76C238.97,43.6,238.85,49.76,239.21,55.37z"/>
			<path class="st45" d="M195.76,37.2c2.19-3.35,3.98-7.89,5.63-14.47c-11.9,0.91-22.94,9.47-34.72,13.06
				c0.14,0.11,0.28,0.24,0.43,0.35c1.73,1.27,3.35,2.37,4.84,3.37c0.73-0.25,1.47-0.49,2.25-0.71
				C184,36.08,190.52,36.13,195.76,37.2z"/>
			<path class="st46" d="M173.52,87.34c-2.37-2.48-4.86-4.9-7.24-7.07c-0.24,1.1-0.49,2.15-0.76,3.15
				c-1.82,6.84-4.98,12.35-9.74,16.4c0.58,0.33,1.19,0.65,1.86,0.94c5.68,2.48,8,8.16,9.77,13.94c3.32-3.49,6.09-8.4,8.41-16.38
				C174.62,95.02,173.86,91.34,173.52,87.34z"/>
			<path class="st47" d="M165.52,83.42c0.27-1,0.52-2.05,0.76-3.15c-1.95-1.78-3.83-3.4-5.49-4.73c-4.98-3.99-5.24-12.7-5.35-20.17
				c-3.93,9.93-3.84,21.74-8.44,29.73c1.2,6.03,2.99,11.39,8.78,14.72C160.54,95.77,163.7,90.26,165.52,83.42z"/>
			<path class="st42" d="M155.43,55.31c-0.06,0.01-0.11,0.02-0.16,0.03c-8.4,1.64-10.9,5.32-15.3,9.28c0,0.02-0.01,0.03-0.01,0.05
				c1.39,1.35,2.58,3.09,3.49,5.35c1.99,4.98,2.59,10.25,3.55,15.08c4.6-7.99,4.51-19.8,8.44-29.73
				C155.44,55.35,155.44,55.33,155.43,55.31z"/>
			<path class="st6" d="M172.3,56.88c1.93-4.29,4.55-7.71,8.39-9.23c0.48-0.19,0.95-0.38,1.41-0.57c-2.45-2.7-5.82-4.71-10.16-7.6
				c-9.21,3.18-13.79,9.05-16.48,15.81C163.76,53.72,168.03,55.29,172.3,56.88z"/>
			<path class="st48" d="M167.41,114.7c-2.68,2.81-5.72,4.71-9.17,6.54c4,2.7,7.22,6.33,10.43,11.84c1.67,2.86,3.69,6.58,5.71,10.38
				c0.63-0.59,1.35-1.16,2.17-1.71c4.27-2.84,6.92-5.85,8.56-8.87c-2.54-0.49-5.37-1.18-8.56-2.17
				C170.92,128.98,169.57,121.76,167.41,114.7z"/>
			<path class="st49" d="M160.79,75.54c1.66,1.33,3.54,2.95,5.49,4.73c1.63-7.32,2.93-16.49,6.02-23.39
				c-4.27-1.59-8.54-3.16-16.84-1.58c-0.01,0.02-0.02,0.04-0.02,0.07C155.55,62.84,155.81,71.55,160.79,75.54z"/>
			<g>
				<path class="st50" d="M155.43,55.31c0,0.02,0,0.04,0,0.06c0.01-0.02,0.02-0.04,0.02-0.07
					C155.45,55.31,155.44,55.31,155.43,55.31z"/>
				<path class="st1" d="M151.78,38.41c-3.67,4.86-6.66,10.32-8.93,16.38c-1.19,3.13-2.15,6.41-2.88,9.84
					c4.4-3.96,6.9-7.64,15.3-9.28c0.06-0.01,0.11-0.02,0.16-0.03c-0.06-4.32-0.09-8.21-0.95-10.51
					C153.72,42.76,152.87,40.64,151.78,38.41z"/>
			</g>
		</g>
		<g>
			<path class="st19" d="M63.33,39.92c0.01-4.76,0.54-9.51,1.62-12.42L48.52,44.54c-0.16,0.69-0.3,1.36-0.41,2.01
				C54.02,46.05,58.86,43.23,63.33,39.92z"/>
			<path class="st30" d="M63.33,39.92c5.06-3.75,9.66-8.12,14.82-10.47c1.92-0.87,3.73-1.37,5.49-1.55
				c-0.42-3.97-1.63-7.9-3.13-11.46c-1.63-0.15-3.34-0.09-5.12,0.22L64.95,27.49C63.87,30.41,63.34,35.16,63.33,39.92z"/>
			<path class="st22" d="M96.9,53.22c-1.63-0.3-3.25-0.47-4.82-0.48c-0.32,3.55-0.87,6.7-1.73,8.91c-1.14,2.92-2.49,5.63-3.72,8.25
				c4.89,2.68,10.34,5.61,16.89,8.34c0.16,0.07,0.32,0.13,0.48,0.19c-0.59-2.96-1.22-5.65-1.46-8
				C101.93,64.33,97.5,59.94,96.9,53.22z"/>
			<path class="st10" d="M77.66,112.38c-0.31,1.05-0.64,2.05-0.98,3.02c1.31,0.36,2.62,0.67,3.9,0.89
				c3.53,0.59,7.69-0.24,11.95-1.42c0.67-0.85,1.4-1.69,2.2-2.49c0.93-0.93,1.79-1.87,2.58-2.79c-2.56-4.89-5.63-9.61-8.24-13.69
				c-3.19-0.07-6.42,0.18-9.89,0.7C79.33,102.49,78.94,108.07,77.66,112.38z"/>
			<path class="st20" d="M86.63,69.9c-2.46,5.24-4.41,10.12-3.11,15.65c0.57,2.4,2.81,6.02,5.56,10.34c4.75,0.1,9.42,0.9,14.67,2.52
				c2.41-7.36,1.41-14.19,0.25-19.98c-0.16-0.06-0.32-0.13-0.48-0.19C96.96,75.51,91.52,72.58,86.63,69.9z"/>
			<path class="st12" d="M97.31,109.59c3.23-3.81,5.24-7.56,6.43-11.18c-5.25-1.62-9.92-2.42-14.67-2.52
				C91.69,99.98,94.76,104.7,97.31,109.59z"/>
			<path class="st51" d="M92.08,52.73c1.58,0.01,3.19,0.18,4.82,0.48c-0.22-2.51,0.08-5.35,1.32-8.72c-1.87,0.53-3.8,1.19-5.81,1.9
				C92.36,48.58,92.26,50.72,92.08,52.73z"/>
			<path class="st52" d="M94.74,112.38c-0.8,0.8-1.53,1.63-2.2,2.49c2.15-0.6,4.32-1.27,6.44-1.9c-0.52-1.14-1.08-2.27-1.66-3.39
				C96.53,110.51,95.67,111.45,94.74,112.38z"/>
			<path class="st35" d="M91.65,29c3.55,1.26,7.21,3.4,11.47,5.81c1.18-2.62,1.81-5.2,2.04-7.7c-5.1-1.31-9.9-5.01-15.25-7.7
				c0.3,1.88,0.61,3.53,0.93,4.68C91.12,25.12,91.4,26.85,91.65,29z"/>
			<path class="st31" d="M92.41,46.4c2.01-0.71,3.94-1.37,5.81-1.9c0.75-2.04,1.84-4.27,3.35-6.75c0.6-0.98,1.11-1.96,1.55-2.94
				c-4.26-2.41-7.92-4.55-11.47-5.81C92.17,33.58,92.54,40.13,92.41,46.4z"/>
			<path class="st39" d="M91.65,29c-0.25-2.15-0.53-3.88-0.82-4.91c-0.31-1.15-0.63-2.8-0.93-4.68c-2.92-1.47-6.01-2.65-9.39-2.96
				c1.5,3.56,2.71,7.49,3.13,11.46C86.38,27.6,88.98,28.05,91.65,29z"/>
			<path class="st11" d="M78.15,145.55c-1.63,0.32-3.29,0.8-4.99,1.4v6.44h17.29c-0.72-2.17-1.42-4.48-2.01-6.89
				C84.8,145.37,81.31,144.94,78.15,145.55z"/>
			<path class="st53" d="M102.27,123.16c-6.61,1.01-11.3,3.09-15.28,5.52c-0.75,5.96,0.06,12.14,1.46,17.83
				c2.54,0.8,5.16,1.94,7.79,3.31c0.38,0.2,0.76,0.4,1.14,0.61c0.09-0.58,0.17-1.17,0.26-1.75c0.92-5.86,2.19-11.66,3.93-16.3
				C102.64,129.51,102.78,126.39,102.27,123.16z"/>
			<path class="st3" d="M32.78,105.81c-0.41-1.9-0.29-4.12,0.98-7.08c0.72-1.69,1.2-3.54,1.49-5.48c-6.34-1.07-11.5-4.49-16.25-8.02
				c-0.1,1.35-0.62,9.62-1.84,18.64c3.06,0.15,6.02,0.54,8.8,1.2C28.07,105.57,30.36,105.8,32.78,105.81z"/>
			<path class="st54" d="M33.65,73.91c-3.94,3.79-8.47,7.83-14.46,11.22c0,0.03-0.19,0.07-0.19,0.13c4.76,3.52,9.92,6.91,16.25,7.98
				C36.15,87.21,35.19,80.21,33.65,73.91z"/>
			<path class="st42" d="M31.89,72.57c-2.08-1.9-3.13-2.87-5.14-5.42l-8.62,8.95c0.74,3.23,0.79,3.79,0.93,6.45
				c0,0-0.05,2.67-0.06,2.7c5.99-3.4,10.71-7.54,14.65-11.34C33.58,73.59,31.97,72.88,31.89,72.57z"/>
			<path class="st55" d="M101.57,132.38c-1.74,4.64-3.01,10.44-3.93,16.3c4.06-3.36,7.68-7.07,10.95-9.19v-16.66
				c-1.93-0.1-3.94-0.02-6.04,0.29c-0.09,0.01-0.18,0.03-0.27,0.04C102.78,126.39,102.64,129.51,101.57,132.38z"/>
			<path class="st56" d="M2.24,104.79v7.61v7.59h11.94c0.27-1.05,0.54-2.14,0.79-3.29c0.87-4.01,1.59-8.51,2.18-12.84
				C12.32,103.62,7.24,103.99,2.24,104.79z"/>
			<path class="st47" d="M60.58,79.31c-2.76-5-6.98-9.62-8.28-13.27c-0.57-1.58-1.31-3.16-2.04-4.86
				c-5.66,1.39-10.14,6.45-16.03,12.17c0,0-0.65,0.61-0.64,0.61c4.11,2.28,10.35,7.99,13.05,18.63c2.67-0.78,5.09-2.03,7.33-3.58
				H51.4L60.58,79.31z"/>
			<path class="st57" d="M48.23,103.87c0.14,3.51-0.03,7.28-0.58,11.29c2.31-1.91,4.61-3.57,7.08-4.23c0.77-0.2,1.56-0.32,2.38-0.37
				c-0.04-3.06,0.29-6.13,1-9.08C54.83,102.33,51.51,103.16,48.23,103.87z"/>
			<path class="st49" d="M50.34,61.16c9.33-2.22,16.33-0.9,23.4,2.12c-1.9-1.6-6.06-5.38-8.28-9.43c-0.17-0.31-0.33-0.67-0.48-1.07
				c-1.9,0-3.85-0.13-5.86-0.4c-3.56-0.48-7.41-1.13-11.35-1.75c0.01,4.25,1.21,7.58,2.49,10.56
				C50.29,61.18,50.31,61.17,50.34,61.16z"/>
			<path class="st32" d="M61.56,92.87c0.77-1.28,1.2-2.57,1.39-3.86h-8.99c-2.25,1.55-4.67,2.8-7.33,3.58
				c0.86,3.38,1.43,7.15,1.59,11.28c3.28-0.7,6.6-1.54,9.89-2.39C58.86,98.41,60,95.48,61.56,92.87z"/>
			<path class="st58" d="M74.7,63.79c3.77,1.69,7.69,3.78,11.92,6.1c1.23-2.62,2.58-5.33,3.72-8.25c0.86-2.21,1.41-5.36,1.73-8.91
				c-1.77-0.01-3.49,0.18-5.14,0.62C82.37,54.57,78.46,58.69,74.7,63.79z"/>
			<path class="st28" d="M74.67,63.76c0.01,0.07,0.05,0.27,0.07,0.33c1.64,6.89,4.16,20.39,4.45,32.51c3.47-0.52,6.7-0.77,9.89-0.7
				c-2.75-4.32-4.99-7.94-5.56-10.34c-1.3-5.53,0.65-10.41,3.11-15.65c-4.23-2.32-7.99-4.36-11.75-6.05
				C74.84,63.9,74.7,63.7,74.67,63.76z"/>
			<path class="st26" d="M58.12,101.48c-0.71,2.94-1.04,6.01-1,9.08c5.84-0.34,12.83,2.98,19.57,4.85c0.34-0.96,0.67-1.96,0.98-3.02
				c1.28-4.31,1.66-9.89,1.52-15.79c-2.62,0.4-5.37,0.95-8.35,1.64C66.79,99.18,62.48,100.35,58.12,101.48z"/>
			<path class="st59" d="M86.98,128.68c3.99-2.43,8.67-4.51,15.28-5.52c-0.52-3.33-1.73-6.77-3.29-10.18
				c-2.12,0.62-4.29,1.3-6.44,1.9C89.27,119.05,87.6,123.79,86.98,128.68z"/>
			<path class="st1" d="M73.74,63.28c-7.07-3.02-14.07-4.34-23.4-2.12c-0.03,0.01-0.06,0.01-0.08,0.02
				c0.72,1.69,1.47,3.27,2.04,4.86c1.3,3.65,5.52,8.27,8.28,13.27L73.5,65.6c0.46-0.66,0.65-0.97,1.12-1.6
				c0.02-0.04,0.1-0.19,0.12-0.22C74.48,63.55,74.04,63.41,73.74,63.28z"/>
			<path class="st8" d="M73.49,65.53v23.43H62.92c-0.19,1.29-0.63,2.58-1.39,3.86c-1.57,2.61-2.71,5.54-3.45,8.61
				c4.37-1.13,8.67-2.3,12.72-3.24c2.98-0.7,5.73-1.24,8.35-1.64c-0.29-12.11-2.61-25.22-4.25-32.11c0,0-0.08-0.55-0.15-0.61
				C74.27,64.46,74.02,64.8,73.49,65.53z"/>
			<path class="st42" d="M76.5,51.46c-1.86,3.52-2.84,5.7-2.29,9.82c0.19,1.46,0.42,2.29,0.54,2.53c3.76-5.11,7.62-9.24,12.19-10.46
				c1.65-0.44,3.38-0.63,5.14-0.62c0.18-2.01,0.29-4.16,0.33-6.34C87.57,48.12,82.3,50.16,76.5,51.46z"/>
			<path class="st5" d="M65.47,53.84c2.21,4.06,6.38,7.83,8.28,9.43c0.3,0.13,0.72,0.38,1.02,0.52c-1.3-5.77-0.46-8.19,1.73-12.33
				c-3.62,0.81-7.44,1.33-11.51,1.31C65.14,53.17,65.3,53.53,65.47,53.84z"/>
			<path class="st60" d="M47.65,115.15c-1.91,1.58-3.83,3.33-5.85,4.83h5.16c0.13-1.05,0.28-2.12,0.45-3.21
				C47.5,116.23,47.58,115.69,47.65,115.15z"/>
			<path class="st16" d="M32.78,105.81c-2.42-0.01-4.71-0.24-6.82-0.74c-2.78-0.67-5.74-1.05-8.8-1.2
				c-0.59,4.32-1.31,8.82-2.18,12.84c-0.25,1.15-0.51,2.24-0.79,3.29h7.3h15.14c0.02-0.09,0.04-0.19,0.05-0.28
				C38.07,113.11,33.8,110.46,32.78,105.81z"/>
			<path class="st61" d="M48.23,103.87c-5.4,1.16-10.67,1.97-15.45,1.94c1.02,4.66,5.3,7.3,3.91,13.89
				c-0.02,0.09-0.04,0.19-0.05,0.28h5.17c2.02-1.5,3.93-3.25,5.85-4.83C48.2,111.15,48.37,107.38,48.23,103.87z"/>
			<path class="st18" d="M54.73,110.92c-2.47,0.66-4.78,2.32-7.08,4.23c-0.07,0.54-0.15,1.07-0.23,1.62
				c-0.17,1.09-0.32,2.16-0.45,3.21h11.49c-0.84-3.02-1.3-6.21-1.34-9.43C56.3,110.6,55.5,110.72,54.73,110.92z"/>
			<path class="st0" d="M57.12,110.55c0.04,3.22,0.5,6.41,1.34,9.43h14.7v4.71c1.11-3.11,2.37-5.99,3.53-9.3
				C69.95,113.54,62.95,110.22,57.12,110.55z"/>
			<path class="st62" d="M82.54,38.23c-2.37,6.53-4.51,10.34-6.05,13.23c5.81-1.3,11.08-3.34,15.91-5.06
				c0.13-6.27-0.23-12.82-0.76-17.4c-2.67-0.95-5.27-1.4-8.01-1.1C84,31.38,83.75,34.9,82.54,38.23z"/>
			<path class="st14" d="M80.59,116.29c-1.28-0.21-2.59-0.52-3.9-0.89c-1.16,3.31-2.42,6.18-3.53,9.3v13.12
				c5.09-2.7,8.95-6.18,13.83-9.14c0.62-4.89,2.28-9.62,5.55-13.81C88.28,116.04,84.12,116.87,80.59,116.29z"/>
			<path class="st63" d="M43.03,93.36c-2.81,0.37-5.39,0.29-7.78-0.12c-0.29,1.95-0.77,3.79-1.49,5.48
				c-1.27,2.96-1.39,5.19-0.98,7.08c4.78,0.03,10.05-0.78,15.45-1.94c-0.16-4.12-0.74-7.89-1.59-11.28
				C45.48,92.93,44.28,93.2,43.03,93.36z"/>
			<path class="st25" d="M86.98,128.68c-4.87,2.96-8.74,6.44-13.83,9.14v9.14c1.7-0.6,3.36-1.08,4.99-1.4
				c3.16-0.61,6.65-0.18,10.29,0.95C87.04,140.82,86.23,134.63,86.98,128.68z"/>
			<path class="st45" d="M47.77,50.62c3.94,0.62,7.79,1.27,11.35,1.75c2.01,0.27,3.96,0.39,5.86,0.4c-1.1-2.89-1.67-7.87-1.66-12.86
				c-4.47,3.31-9.31,6.14-15.22,6.64C47.87,48.01,47.77,49.36,47.77,50.62z"/>
			<path class="st6" d="M46.52,46.62l-3.21,3.33c1.49,0.21,2.98,0.44,4.46,0.67c0-1.27,0.1-2.62,0.34-4.07
				c0.11-0.65,0.24-1.32,0.41-2.01L46.52,46.62z"/>
			<path class="st64" d="M76.5,51.46c1.53-2.9,3.67-6.7,6.05-13.23c1.21-3.33,1.46-6.85,1.1-10.34c-1.76,0.19-3.57,0.68-5.49,1.55
				c-5.16,2.35-9.76,6.72-14.82,10.47c-0.01,4.98,0.56,9.97,1.66,12.86C69.05,52.8,72.88,52.27,76.5,51.46z"/>
			<path class="st5" d="M47.77,50.62c-1.48-0.23-2.96-0.46-4.46-0.67L30.42,63.33c1,2.74,2.08,6.05,2.99,9.63
				c0.08,0.32,0.16,0.63,0.24,0.95c0.19-0.19,0.39-0.37,0.58-0.56c5.89-5.71,10.37-10.78,16.03-12.17
				C48.98,58.2,47.78,54.88,47.77,50.62z"/>
			<path class="st65" d="M43.03,93.36c1.25-0.16,2.45-0.43,3.61-0.77c-2.7-10.64-8.38-15.78-11.63-17.81c0,0-0.79-0.53-1.36-0.87
				c1.54,6.31,2.5,13.31,1.6,19.33C37.64,93.65,40.22,93.72,43.03,93.36z"/>
			<path class="st1" d="M26.75,67.15c2.01,2.55,4.57,5.54,6.89,6.74c-0.76-3.68-2.21-7.81-3.22-10.56L26.75,67.15z"/>
			<path class="st66" d="M97.64,148.68c-0.09,0.58-0.18,1.17-0.26,1.75c1.66,0.91,3.32,1.91,4.96,2.96h4.32h1.93v-6.42v-7.48
				C105.32,141.61,101.7,145.32,97.64,148.68z"/>
			<path class="st33" d="M88.85,11.56h-4.98H80.3l-0.72,0.75L78.92,13c0.55,1.1,1.09,2.25,1.59,3.44c3.39,0.32,6.47,1.49,9.39,2.96
				C89.52,16.98,89.16,14.18,88.85,11.56z"/>
			<path class="st34" d="M80.51,16.44c-0.5-1.2-1.04-2.34-1.59-3.44l-3.53,3.66C77.18,16.35,78.88,16.29,80.51,16.44z"/>
			<path class="st67" d="M89.9,19.4c5.35,2.69,10.15,6.39,15.25,7.7c0.54-5.92-1.2-11.35-3.29-15.54H88.85
				C89.16,14.18,89.52,16.98,89.9,19.4z"/>
			<path class="st24" d="M102.54,70.43c0.23,2.35,0.87,5.04,1.46,8c1.59,0.65,3.12,1.17,4.59,1.61v-23
				c-3.87-1.7-7.84-3.12-11.69-3.82C97.5,59.94,101.93,64.33,102.54,70.43z"/>
			<path class="st23" d="M102.05,43.6c-1.24,0.22-2.53,0.53-3.84,0.9c-1.24,3.37-1.54,6.21-1.32,8.72c3.85,0.7,7.81,2.12,11.69,3.82
				V43.55C106.36,43.27,104.14,43.24,102.05,43.6z"/>
			<path class="st27" d="M115.24,102.25c-1.85-0.47-3.93-1.14-6.36-2.07c-1.78-0.68-3.49-1.27-5.14-1.78
				c-1.19,3.62-3.2,7.36-6.43,11.18c0.59,1.12,1.14,2.25,1.66,3.39c4.13-1.22,8.09-2.25,11.37-2.05c1.85,0.11,3.53,0.3,5.13,0.55
				c0.41,0.07,0.8,0.16,1.2,0.24v-9.13C116.21,102.48,115.74,102.38,115.24,102.25z"/>
			<path class="st9" d="M113.72,87.82h-5.14v-7.78c-1.47-0.44-2.99-0.96-4.59-1.61c1.16,5.79,2.16,12.62-0.25,19.98
				c1.65,0.51,3.35,1.1,5.14,1.78c2.43,0.92,4.51,1.59,6.36,2.07c0.5,0.13,0.97,0.23,1.44,0.33V87.82H113.72z"/>
			<path class="st68" d="M105.16,27.11c1.13,0.29,2.27,0.45,3.43,0.47V11.56h-6.72C103.95,15.76,105.69,21.18,105.16,27.11z"/>
			<path class="st69" d="M101.57,37.74c-1.52,2.48-2.6,4.71-3.35,6.75c1.31-0.37,2.59-0.68,3.84-0.9c2.09-0.36,4.3-0.33,6.54-0.05
				v-5.74c-1.93-1.02-3.76-2.03-5.47-3.01C102.68,35.78,102.17,36.76,101.57,37.74z"/>
			<path class="st67" d="M103.12,34.81c1.71,0.97,3.54,1.99,5.47,3.01V27.57c-1.16-0.02-2.3-0.18-3.43-0.47
				C104.93,29.6,104.3,32.19,103.12,34.81z"/>
			<path class="st70" d="M96.98,153.39h5.36c-1.65-1.05-3.3-2.05-4.96-2.96C97.23,151.42,97.1,152.41,96.98,153.39z"/>
			<path class="st71" d="M96.23,149.82c-2.63-1.38-5.25-2.51-7.79-3.31c0.59,2.4,1.28,4.71,2.01,6.89h0.44h6.09
				c0.13-0.98,0.26-1.97,0.4-2.96C97,150.22,96.61,150.02,96.23,149.82z"/>
			<path class="st72" d="M115.48,111.47c-1.6-0.26-3.28-0.44-5.13-0.55c-3.28-0.19-7.24,0.83-11.37,2.05
				c1.56,3.41,2.77,6.86,3.29,10.18c0.09-0.01,0.18-0.03,0.27-0.04c2.11-0.31,4.12-0.39,6.04-0.29v-2.84h6.7h1.4v-8.28
				C116.28,111.63,115.89,111.54,115.48,111.47z"/>
			<path class="st7" d="M19.01,85.19c-1.9-1.41-3.76-2.84-5.64-4.16L3.63,91.14c0.95-0.21,1.88-0.44,2.81-0.71
				C11.25,89.04,15.38,87.23,19.01,85.19z"/>
			<path class="st2" d="M17.15,103.86c1.41-8.99,1.9-17.27,1.9-18.67c-0.03-0.02-7.81,3.86-12.62,5.25
				c-0.93,0.27-1.86,0.5-2.81,0.71l-1.39,1.44v12.21C7.24,103.99,12.32,103.62,17.15,103.86z"/>
			<path class="st2" d="M18.13,76.09l-4.75,4.92l-0.01,0.01c1.88,1.31,5.65,4.21,5.65,4.21s0.06-1.73,0.04-2.93
				C18.94,79.51,18.87,79.32,18.13,76.09z"/>
		</g>
		<g>
			<path class="st0" d="M182.05,74.42h3.25l2.49,5.87l2.45-5.87h3.2l-4.31,8.54v6.17h-2.77v-6.17L182.05,74.42z"/>
			<path class="st0" d="M194.86,74.42h7.7v2.35h-4.92v3.46h4.45v2.32h-4.45v4.27h5.18v2.31h-7.96V74.42z"/>
			<path class="st0" d="M207.87,74.42h3.03l4.16,14.71h-2.91l-0.68-2.91h-4.25l-0.69,2.91h-2.89L207.87,74.42z M210.93,83.8
				l-1.55-6.66l-1.58,6.66H210.93z"/>
			<path class="st0" d="M216.52,74.42h4.93c0.91,0,1.72,0.09,2.42,0.27c0.7,0.18,1.32,0.62,1.83,1.3c0.52,0.69,0.77,1.56,0.77,2.61
				c0,0.94-0.25,1.75-0.76,2.44c-0.51,0.69-1.32,1.2-2.43,1.53c0.62,0.17,1.17,0.65,1.66,1.43l0.74,1.19l1.94,3.93h-3.14l-2.23-4.22
				c-0.44-0.84-0.8-1.36-1.08-1.58c-0.28-0.22-0.76-0.33-1.43-0.33h-0.42v6.13h-2.79V74.42z M219.31,80.76h1.39
				c1.09,0,1.85-0.17,2.28-0.52c0.43-0.34,0.65-0.85,0.65-1.52c0-0.7-0.22-1.19-0.66-1.48s-1.11-0.44-2.02-0.44h-1.64V80.76z"/>
			<path class="st0" d="M237.77,78.55l-2.79,0.16c-0.17-1.5-0.76-2.25-1.77-2.25c-0.43,0-0.79,0.13-1.08,0.39
				c-0.29,0.26-0.44,0.61-0.44,1.04c0,0.37,0.14,0.74,0.41,1.08c0.27,0.35,1,0.81,2.21,1.37c1.36,0.64,2.34,1.3,2.94,1.99
				c0.6,0.69,0.9,1.56,0.9,2.61c0,1.29-0.43,2.35-1.27,3.18c-0.85,0.83-2.02,1.24-3.5,1.24c-3.11,0-4.72-1.67-4.82-5.01l2.82-0.25
				c0.08,1.08,0.3,1.83,0.66,2.25c0.36,0.42,0.85,0.63,1.47,0.63c0.63,0,1.11-0.19,1.43-0.56c0.32-0.37,0.48-0.8,0.48-1.27
				c0-0.46-0.16-0.88-0.47-1.25c-0.32-0.37-1.19-0.88-2.6-1.51c-1.4-0.64-2.31-1.3-2.75-1.99c-0.43-0.68-0.65-1.43-0.65-2.25
				c0-0.87,0.2-1.6,0.62-2.19c0.41-0.59,0.93-1.04,1.56-1.34c0.63-0.3,1.4-0.46,2.33-0.46c1.45,0,2.51,0.37,3.18,1.12
				C237.3,76.04,237.68,77.12,237.77,78.55z"/>
		</g>
	</g>
	<g>
		<path class="st0" d="M137.75,160.21c1.33,0,2.32,0.46,2.97,1.39c0.65,0.92,0.98,2.37,0.98,4.35c0,1.36-0.16,2.42-0.47,3.18
			c-0.31,0.76-0.76,1.33-1.34,1.7c-0.58,0.37-1.29,0.56-2.12,0.56c-0.74,0-1.34-0.12-1.82-0.37c-0.47-0.25-0.88-0.63-1.22-1.16
			c-0.34-0.53-0.57-1.15-0.7-1.85c-0.13-0.7-0.2-1.49-0.2-2.34c0-1.82,0.33-3.18,0.98-4.09
			C135.47,160.67,136.45,160.21,137.75,160.21z M135.98,166.18c0,1.31,0.16,2.21,0.49,2.7c0.33,0.49,0.77,0.74,1.32,0.74
			c0.45,0,0.84-0.16,1.15-0.49c0.32-0.33,0.5-0.8,0.56-1.43c0.06-0.63,0.09-1.4,0.09-2.33c0-1.3-0.17-2.19-0.52-2.66
			c-0.34-0.47-0.78-0.71-1.3-0.71c-0.43,0-0.8,0.16-1.11,0.48c-0.31,0.32-0.5,0.73-0.56,1.24
			C136.04,164.22,136,165.04,135.98,166.18z"/>
		<path class="st0" d="M143.49,160.4h5.82v1.73h-3.79v2.66h3.02v1.72h-3.02v4.69h-2.03V160.4z"/>
	</g>
	<rect x="1.93" y="165.48" class="st0" width="120.05" height="1.47"/>
	<rect x="161.17" y="165.57" class="st0" width="118.71" height="1.46"/>
	<g>
		<path class="st0" d="M156.74,205.51c0.66,0,1.19-0.18,1.6-0.54c0.41-0.36,0.62-0.77,0.62-1.22c0-0.22-0.07-0.45-0.19-0.67
			c-0.13-0.22-0.33-0.42-0.59-0.59c-0.27-0.17-0.62-0.31-1.06-0.41c-0.44-0.1-0.97-0.15-1.59-0.15c-0.81,0-1.59,0.09-2.35,0.28
			c-0.76,0.19-1.53,0.43-2.3,0.72c0.72,0.72,1.3,1.56,1.73,2.52c0.43,0.96,0.65,2.06,0.65,3.3c0,1.81-0.36,3.41-1.07,4.81
			c-0.71,1.4-1.67,2.57-2.87,3.52c-1.2,0.95-2.58,1.67-4.15,2.16c-1.57,0.49-3.2,0.74-4.89,0.74c-1.69,0-3.34-0.25-4.94-0.75
			c-1.6-0.5-3.04-1.25-4.31-2.25c-1.27-1-2.28-2.26-3.05-3.78c-0.77-1.52-1.15-3.28-1.15-5.3c0-1.86,0.3-3.49,0.89-4.9
			c0.6-1.4,1.36-2.61,2.3-3.62c0.94-1.01,1.98-1.84,3.12-2.5c1.14-0.65,2.25-1.16,3.34-1.53c-0.67-0.34-1.33-0.77-1.98-1.27
			c-0.65-0.5-1.22-1.06-1.72-1.68c-0.5-0.62-0.9-1.31-1.2-2.06c-0.3-0.75-0.45-1.56-0.45-2.42c0-1.21,0.26-2.3,0.78-3.28
			c0.52-0.98,1.19-1.82,2.03-2.51c0.84-0.69,1.79-1.22,2.86-1.59c1.07-0.37,2.16-0.56,3.28-0.56c1.34,0,2.5,0.15,3.46,0.45
			c0.97,0.3,1.75,0.69,2.35,1.16c0.6,0.47,1.05,1.01,1.33,1.62c0.28,0.6,0.43,1.2,0.43,1.78c0,0.5-0.09,0.98-0.27,1.45
			c-0.18,0.47-0.44,0.88-0.78,1.23c-0.34,0.35-0.75,0.63-1.23,0.84c-0.48,0.21-1.02,0.31-1.6,0.31c-0.45,0-0.85-0.08-1.22-0.25
			c-0.36-0.16-0.68-0.35-0.96-0.56c-0.28-0.21-0.5-0.41-0.67-0.62c-0.17-0.21-0.28-0.35-0.34-0.44l0.85-0.52
			c0.09,0.09,0.21,0.19,0.38,0.31c0.16,0.12,0.35,0.24,0.56,0.35c0.21,0.11,0.43,0.21,0.66,0.28c0.23,0.08,0.48,0.12,0.74,0.12
			c0.69,0,1.24-0.25,1.65-0.75c0.41-0.5,0.62-1.09,0.62-1.76c0-0.4-0.09-0.8-0.27-1.2c-0.18-0.4-0.46-0.78-0.84-1.11
			c-0.38-0.34-0.87-0.61-1.46-0.81c-0.59-0.21-1.31-0.31-2.13-0.31c-1.09,0-2.04,0.2-2.87,0.59c-0.83,0.4-1.52,0.93-2.07,1.59
			c-0.55,0.66-0.97,1.41-1.25,2.25c-0.28,0.84-0.43,1.69-0.43,2.57c0,0.66,0.08,1.29,0.25,1.91c0.16,0.62,0.4,1.2,0.72,1.75
			c0.32,0.54,0.72,1.03,1.22,1.47c0.49,0.44,1.07,0.79,1.75,1.05c0.34-0.09,0.67-0.14,0.98-0.17c0.31-0.03,0.59-0.04,0.85-0.04
			c0.45,0,0.8,0.06,1.06,0.19c0.26,0.13,0.39,0.31,0.39,0.56c0,0.36-0.15,0.64-0.44,0.83c-0.29,0.19-0.68,0.28-1.16,0.28
			c-0.29,0-0.61-0.03-0.94-0.08c-0.34-0.05-0.69-0.14-1.07-0.26c-1.19,0.28-2.23,0.75-3.13,1.44c-0.9,0.68-1.65,1.5-2.25,2.44
			c-0.6,0.95-1.06,1.99-1.36,3.12c-0.3,1.13-0.45,2.28-0.45,3.45c0,1.41,0.22,2.81,0.66,4.19c0.44,1.38,1.11,2.61,2,3.7
			c0.9,1.09,2.01,1.96,3.34,2.64c1.33,0.67,2.89,1.01,4.68,1.01c1.26,0,2.48-0.2,3.66-0.6c1.18-0.4,2.22-0.98,3.13-1.76
			c0.9-0.78,1.63-1.73,2.18-2.87c0.55-1.14,0.83-2.45,0.83-3.93c0-1.19-0.2-2.24-0.59-3.14c-0.4-0.9-0.92-1.68-1.58-2.31
			c-0.71,0.29-1.41,0.59-2.11,0.88c-0.7,0.29-1.41,0.56-2.15,0.8c-0.73,0.24-1.48,0.44-2.24,0.58c-0.76,0.15-1.54,0.22-2.35,0.22
			c-0.62,0-1.16-0.08-1.62-0.23c-0.46-0.16-0.84-0.36-1.14-0.61c-0.3-0.25-0.53-0.54-0.67-0.87c-0.15-0.33-0.22-0.67-0.22-1.03
			c0-0.55,0.15-1.04,0.45-1.47c0.3-0.43,0.71-0.8,1.23-1.1c0.52-0.3,1.12-0.53,1.82-0.69c0.7-0.16,1.43-0.23,2.21-0.23
			c0.83,0,1.68,0.09,2.57,0.27c0.89,0.18,1.76,0.46,2.62,0.84c1.09-0.53,2.23-1.01,3.44-1.43c1.21-0.42,2.52-0.63,3.93-0.63
			c0.95,0,1.77,0.12,2.46,0.37c0.69,0.25,1.26,0.57,1.72,0.97c0.46,0.4,0.79,0.85,1.01,1.35c0.22,0.5,0.32,1,0.32,1.5
			c0,0.47-0.09,0.91-0.26,1.34c-0.17,0.43-0.43,0.82-0.76,1.16c-0.34,0.35-0.75,0.62-1.23,0.83c-0.48,0.21-1.03,0.31-1.63,0.31
			L156.74,205.51z M142.64,200.9c-0.98,0-1.8,0.13-2.46,0.4c-0.66,0.27-0.98,0.62-0.98,1.07c0,0.28,0.16,0.5,0.47,0.68
			c0.31,0.18,0.81,0.27,1.5,0.27c0.79,0,1.62-0.17,2.47-0.52c0.85-0.35,1.76-0.76,2.73-1.24c-0.66-0.24-1.3-0.41-1.94-0.52
			C143.79,200.96,143.19,200.9,142.64,200.9z"/>
	</g>
	<rect x="2.02" y="218.84" class="st0" width="120.05" height="1.47"/>
	<rect x="161.25" y="218.43" class="st0" width="118.71" height="1.46"/>
</g>
</svg>
