<?xml version="1.0" encoding="UTF-8"?>
<svg width="19px" height="19px" viewBox="0 0 19 19" version="1.1" xmlns="http://www.w3.org/2000/svg" xmlns:xlink="http://www.w3.org/1999/xlink">
    <!-- Generator: sketchtool 50.2 (55047) - http://www.bohemiancoding.com/sketch -->
    <title>5FC5E2B9-BC2A-4FB5-AFD2-37B581FA9162</title>
    <desc>Created with sketchtool.</desc>
    <defs></defs>
    <g id="💻UI" stroke="none" stroke-width="1" fill="none" fill-rule="evenodd">
        <g id="Dashboard-T3R0" transform="translate(-771.000000, -597.000000)" fill="#FFFFFF">
            <g id="Group-18" transform="translate(760.000000, 586.000000)">
                <g id="Group-17">
                    <g id="hotel-nights" transform="translate(11.000000, 11.000000)">
                        <g id="Group-16" transform="translate(0.555556, 0.555556)">
                            <polygon id="Fill-114" points="17.037037 13.3333333 17.037037 10.3703704 0.740740741 10.3703704 0.740740741 13.3333333 3.7037037 13.3333333 3.7037037 11.8518519 5.18518519 11.8518519 5.18518519 13.3333333 6.66666667 13.3333333 6.66666667 11.8518519 8.14814815 11.8518519 8.14814815 13.3333333 9.62962963 13.3333333 9.62962963 11.8518519 11.1111111 11.8518519 11.1111111 13.3333333 12.5925926 13.3333333 12.5925926 11.8518519 14.0740741 11.8518519 14.0740741 13.3333333"></polygon>
                            <polygon id="Fill-115" points="0.740740741 5.92592593 0.740740741 8.88888889 3.7037037 8.88888889 3.7037037 7.40740741 5.18518519 7.40740741 5.18518519 8.88888889 6.66666667 8.88888889 6.66666667 7.40740741 8.14814815 7.40740741 8.14814815 8.88888889 9.62962963 8.88888889 9.62962963 7.40740741 11.1111111 7.40740741 11.1111111 8.88888889 12.5925926 8.88888889 12.5925926 7.40740741 14.0740741 7.40740741 14.0740741 8.88888889 17.037037 8.88888889 17.037037 5.92592593"></polygon>
                            <path d="M3.7037037,4.44444444 L3.7037037,2.96296296 L5.18518519,2.96296296 L5.18518519,4.44444444 L6.66666667,4.44444444 L6.66666667,2.96296296 L8.14814815,2.96296296 L8.14814815,4.44444444 L12.2481481,4.44444444 L9.50518519,0.32962963 C9.36740741,0.123703704 9.1362963,0 8.88888889,0 L2.96296296,0 C1.73777778,0 0.740740741,0.997037037 0.740740741,2.22222222 L0.740740741,4.44444444 L3.7037037,4.44444444 Z" id="Fill-116"></path>
                            <path d="M0,14.8148148 L0,17.037037 C0,17.4459259 0.331111111,17.7777778 0.740740741,17.7777778 L17.037037,17.7777778 C17.4466667,17.7777778 17.7777778,17.4459259 17.7777778,17.037037 L17.7777778,14.8148148 L0,14.8148148 Z" id="Fill-117"></path>
                        </g>
                    </g>
                </g>
            </g>
        </g>
    </g>
</svg>