<svg xmlns="http://www.w3.org/2000/svg" width="16" height="14" viewBox="0 0 16 14">
    <path fill="#FFF" fill-rule="evenodd" d="M3.85 4.9h9.715A2.445 2.445 0 0 1 16 7.35a2.445 2.445 0 0 1-2.435 2.45h-2.062l-2.576 3.888a.695.695 0 0 1-.58.312H5.566a.695.695 0 0 1-.613-.37.705.705 0 0 1 .034-.719L7.048 9.8H2.087a.697.697 0 0 1-.675-.53L.021 3.67a.701.701 0 0 1 .675-.87h1.391c.232 0 .45.117.579.312L3.85 4.9zM8.348 0c.243 0 .467.127.594.335L10.864 3.5H6.45L4.971 1.065A.704.704 0 0 1 4.96.358.695.695 0 0 1 5.565 0h2.783z"/>
</svg>
