<svg xmlns="http://www.w3.org/2000/svg" width="16" height="20" viewBox="0 0 16 20">
    <path fill="#FFF" fill-rule="evenodd" d="M10.725 5H8.91V3.333H7.094V5H5.28a.92.92 0 0 1-.813-.46L2.65 1.205a.777.777 0 0 1 .04-.811A.931.931 0 0 1 3.463 0h9.078c.315 0 .606.15.773.395.165.246.18.552.04.81L11.538 4.54a.92.92 0 0 1-.813.46zm-9.38 13.7c-1.353-1.28-1.703-3.127-.97-4.715l3.645-6.85a.918.918 0 0 1 .816-.468h6.333c.346 0 .663.18.816.467l3.624 6.811c.754 1.63.405 3.46-.934 4.743-.918.878-2.235 1.312-3.56 1.312H4.905c-1.324 0-2.64-.426-3.562-1.3z"/>
</svg>
