<svg xmlns="http://www.w3.org/2000/svg" width="16" height="13" viewBox="0 0 16 13">
    <path fill="#FFF" fill-rule="nonzero" d="M14.72 6.19a.63.63 0 0 1 .64-.619.63.63 0 0 1 .64.62v6.19a.63.63 0 0 1-.64.619.63.63 0 0 1-.64-.619v-.62H1.28v.62A.63.63 0 0 1 .64 13a.63.63 0 0 1-.64-.619v-6.19a.63.63 0 0 1 .64-.62.63.63 0 0 1 .64.62h13.44zM1.28 1.238C1.28.554 1.853 0 2.56 0h10.88c.707 0 1.28.554 1.28 1.238v3.714h-1.28v-.619a.63.63 0 0 0-.64-.619H9.28a.63.63 0 0 0-.64.62v.623H7.36v-.624a.63.63 0 0 0-.64-.619H3.2a.63.63 0 0 0-.64.62v.618H1.28V1.238z"/>
</svg>
