<svg xmlns="http://www.w3.org/2000/svg" width="15" height="18" viewBox="0 0 15 18">
    <path fill="#B4BAC7" fill-rule="evenodd" d="M5.1 10.05l1.65-1.238h.038A1.494 1.494 0 0 1 6 7.5v-.67c0-.747.51-1.44 1.248-1.56A1.501 1.501 0 0 1 9 6.75v.75c0 .57-.32 1.058-.787 1.313h.036L9.9 10.05c.378.284.6.728.6 1.2a.75.75 0 0 1-.75.75h-4.5a.75.75 0 0 1-.75-.75 1.5 1.5 0 0 1 .6-1.2M12.75 18c1.24 0 2.25-1.01 2.25-2.25V2.25C15 1.01 13.99 0 12.75 0h-12A.75.75 0 0 0 0 .75v16.5c0 .414.335.75.75.75h12z"/>
</svg>
