<svg xmlns="http://www.w3.org/2000/svg" width="18" height="18" viewBox="0 0 18 18">
    <g fill="none" fill-rule="evenodd">
        <path d="M0 0h18v18H0z"/>
        <path fill="#8F96A5" fill-rule="nonzero" d="M15.75 2.25H2.25c-.825 0-1.5.675-1.5 1.5v9c0 .825.675 1.5 1.5 1.5H6v1.5h6v-1.5h3.75c.825 0 1.492-.675 1.492-1.5l.008-9c0-.825-.675-1.5-1.5-1.5zm0 10.5H2.25v-9h13.5v9zM7.577 6.136l3.309 1.985a.15.15 0 0 1 0 .258l-3.309 1.985a.15.15 0 0 1-.227-.129v-3.97a.15.15 0 0 1 .227-.129z"/>
    </g>
</svg>
