<svg xmlns="http://www.w3.org/2000/svg" width="18" height="17" viewBox="0 0 18 17">
    <path fill="#B4BAC7" fill-rule="evenodd" d="M.178 11.575L4.76 6.423l5.32 5.888v4.69H.72a.714.714 0 0 1-.72-.71v-4.25c0-.17.063-.336.178-.466zm11.884-5.667l5.04 5.667c.115.13.178.295.178.467v4.25a.714.714 0 0 1-.72.708h-5.04v-4.958a.702.702 0 0 0-.182-.471L6.004 5.667h5.516c.208 0 .405.088.542.241zm2.338-.241c-1.588 0-2.88-1.271-2.88-2.834C11.52 1.271 12.812 0 14.4 0c1.588 0 2.88 1.27 2.88 2.833 0 1.563-1.292 2.834-2.88 2.834z"/>
</svg>
