<?xml version="1.0" encoding="UTF-8"?>
<svg width="16px" height="14px" viewBox="0 0 16 14" version="1.1" xmlns="http://www.w3.org/2000/svg" xmlns:xlink="http://www.w3.org/1999/xlink">
    <!-- Generator: Sketch 50.2 (55047) - http://www.bohemiancoding.com/sketch -->
    <title>Shape</title>
    <desc>Created with Sketch.</desc>
    <defs></defs>
    <g id="UI" stroke="none" stroke-width="1" fill="none" fill-rule="evenodd">
        <g id="Home-Services-Dropdown-Hover-State-2" transform="translate(-880.000000, -190.000000)" fill="#FFFFFF" fill-rule="nonzero">
            <g id="Group-93" transform="translate(828.000000, 45.000000)">
                <g id="Group-16" transform="translate(40.000000, 127.000000)">
                    <g id="Group-10" transform="translate(0.000000, 5.000000)">
                        <g id="protection-symbol-of-opened-umbrella-silhouette-under-raindrops" transform="translate(11.400000, 12.200000)">
                            <path d="M16.6,7.89539992 C16.2111615,7.61888891 15.6209887,7.44239582 14.9598874,7.44239582 C13.9363007,7.44239582 13.0822311,7.86533763 12.8835373,8.4278285 L12.7982559,8.4278285 C12.6044249,7.86168979 11.7477409,7.43502254 10.7197097,7.43502254 C10.0575366,7.43502254 9.46765131,7.61262809 9.07902196,7.88994111 L9.07902196,12.6510893 C9.07902196,13.8360663 8.10484725,14.8 6.90742961,14.8 C5.70998583,14.8 4.73583727,13.8360404 4.73583727,12.6510893 C4.73583727,12.3892472 4.95026969,12.1770778 5.2148723,12.1770778 C5.4794749,12.1770778 5.69390732,12.3892472 5.69390732,12.6510893 C5.69390732,13.3132359 6.238276,13.8519253 6.90742961,13.8519253 C7.57655707,13.8519253 8.12092576,13.3132359 8.12092576,12.6510893 L8.12092576,7.89767658 C7.73219182,7.62020834 7.142019,7.44239582 6.47953209,7.44239582 C5.45591923,7.44239582 4.60184968,7.86533763 4.40318204,8.4278285 L4.31792672,8.4278285 C4.12406956,7.86168979 3.26738562,7.43502254 2.23938059,7.43502254 C1.57869761,7.43502254 0.988812363,7.61125691 0.6,7.88745747 C0.912419832,4.5116326 4.12234406,1.82822359 8.1209519,1.62839471 L8.1209519,1.27403736 C8.1209519,1.01216943 8.33538432,0.8 8.59998693,0.8 C8.86458953,0.8 9.07902196,1.0121953 9.07902196,1.27403736 L9.07902196,1.62844646 C13.0804272,1.82871515 16.2918416,4.51605657 16.6,7.89539992 Z" id="Shape"></path>
                        </g>
                    </g>
                </g>
            </g>
        </g>
    </g>
</svg>