<?xml version="1.0" encoding="UTF-8"?>
<svg width="150px" height="150px" viewBox="0 0 150 150" version="1.1" xmlns="http://www.w3.org/2000/svg" xmlns:xlink="http://www.w3.org/1999/xlink">
    <!-- Generator: sketchtool 50.2 (55047) - http://www.bohemiancoding.com/sketch -->
    <title>7A7BCEEC-5760-481A-BD42-99A56D884575</title>
    <desc>Created with sketchtool.</desc>
    <defs></defs>
    <g id="💻UI" stroke="none" stroke-width="1" fill="none" fill-rule="evenodd">
        <g id="Dashboard-T6R0-Manage-Trips-EmptyState" transform="translate(-645.000000, -527.000000)">
            <g id="Group-16" transform="translate(521.000000, 527.000000)">
                <g id="notours" transform="translate(124.000000, 0.000000)">
                    <g id="Group-11">
                        <circle id="Oval" fill="#F6F7F8" cx="75" cy="75" r="75"></circle>
                        <g id="noun_Luggage_82324" transform="translate(41.000000, 30.000000)" fill="#DCE1E5" fill-rule="nonzero" stroke="#F6F7F8" stroke-width="2.79999995">
                            <path d="M37.8,87 C37.8,89.5731986 35.6731986,91.7 33.1,91.7 C30.5268014,91.7 28.4,89.5731986 28.4,87 C28.4,84.4268014 30.5268014,82.3 33.1,82.3 C35.6731986,82.3 37.8,84.4268014 37.8,87 Z M6.6,82.4 C9.17974818,82.4 11.3,84.431908 11.3,87 C11.3,89.5731986 9.17319864,91.7 6.6,91.7 C4.02025182,91.7 1.90000002,89.668092 1.90000002,87.1 C1.90000002,84.5268014 4.02680136,82.4 6.6,82.4 Z M63.1,82.4 C65.6731986,82.4 67.8,84.5268014 67.8,87.1 C67.8,89.6731986 65.6731986,91.8 63.1,91.8 C60.5268014,91.8 58.4,89.6731986 58.4,87.1 C58.4,84.5268014 60.5268014,82.4 63.1,82.4 Z M45.9,82.4 C48.4731986,82.4 50.6,84.5268014 50.6,87.1 C50.6,89.6731986 48.4731986,91.8 45.9,91.8 C43.3268014,91.8 41.2,89.6731986 41.2,87.1 C41.2,84.5268014 43.3268014,82.4 45.9,82.4 Z M11.6,23.1 L11.6,7.79236178 C10.2386297,7.68792296 9.20000002,6.52689929 9.20000002,5.2 C9.20000002,3.7416762 10.4088336,2.60000002 11.8,2.60000002 L27.9,2.60000002 C29.3583238,2.60000002 30.5,3.80883362 30.5,5.2 C30.5,6.58795351 29.4050143,7.68908127 28.1,7.7921176 L28.1,23.1 L36.1,23.1 C38.8731986,23.1 41.1,25.3268014 41.1,28.1 L41.1,78 C41.1,80.7731986 38.8731986,83 36.1,83 L3.6,83 C0.826801363,83 -1.39999998,80.7731986 -1.39999998,78 L-1.39999998,28.1 C-1.39999998,25.3268014 0.826801363,23.1 3.6,23.1 L11.6,23.1 Z M16.3,23.1 L23.4,23.1 L23.4,7.79999998 L16.3,7.79999998 L16.3,23.1 Z M31.6,51.7792959 C31.3241994,50.9381695 30.5124617,50.3 29.6,50.3 L10.2,50.3 C9.07319864,50.3 8.09999998,51.2731986 8.09999998,52.4 L8.09999998,70.9 C8.09999998,72.0268014 9.07319864,73 10.2,73 L29.5,73 C30.6268014,73 31.6,72.0268014 31.6,70.9 L31.6,51.7792959 Z M29.5,49.3 C31.1731986,49.3 32.6,50.7268014 32.6,52.4 L32.6,70.9 C32.6,72.6522734 31.1961181,74 29.5,74 L10.2,74 C8.44772664,74 7.10000002,72.5961181 7.10000002,70.9 L7.10000002,52.4 C7.10000002,50.6477266 8.50388192,49.3 10.2,49.3 L29.5,49.3 Z M65,33.2 C66.8731986,33.2 68.4,34.7268014 68.4,36.6 L68.4,79.6 C68.4,81.4731986 66.8731986,83 65,83 L56.8,83 L56.8,10.2 L61,10.2 C62.8731986,10.2 64.4,11.7268014 64.4,13.6 L64.4,32.6 C64.4,32.9268014 64.6731986,33.2 65,33.2 Z M41.6,12.1494799 L41.6,3.27659893 C41.207564,2.77869474 41,2.17136705 41,1.5 C41,-0.0731986366 42.3268014,-1.39999998 43.9,-1.39999998 C45.4731986,-1.39999998 46.8,-0.0731986366 46.8,1.5 C46.8,2.17136705 46.592436,2.77869474 46.2,3.27659893 L46.2,10.2 L57.8,10.2 L57.8,82.9 L44.7,82.9 C42.8268014,82.9 41.3,81.3731986 41.3,79.5 L41.3,13.6 C41.3,13.0945373 41.3996071,12.5942571 41.6,12.1494799 Z" id="Shape"></path>
                        </g>
                    </g>
                </g>
            </g>
        </g>
    </g>
</svg>