<svg xmlns="http://www.w3.org/2000/svg" xmlns:xlink="http://www.w3.org/1999/xlink" width="40" height="40" viewBox="0 0 40 40">
    <defs>
        <rect id="a" width="40" height="40" rx="20"/>
    </defs>
    <g fill="none" fill-rule="evenodd">
        <mask id="b" fill="#fff">
            <use xlink:href="#a"/>
        </mask>
        <use fill="#71BA80" xlink:href="#a"/>
        <path fill="#61AA70" d="M16.926 3.944l22.837.023.157 41.724-22.994.118z" mask="url(#b)" opacity=".5" transform="rotate(30 28.423 24.876)"/>
        <g fill="#FFF" mask="url(#b)">
            <path d="M18.565 13.91l-2.174 3.913h6.435l-2.26-3.913 1.477-2.609c.261-.434.174-.956-.26-1.217-.435-.174-.957-.087-1.218.348l-.956 1.739-.957-1.74c-.26-.434-.782-.52-1.217-.347-.435.26-.522.783-.348 1.217l1.478 2.61zM29.087 28.693l-5.217-9.13h-8.522l-5.218 9.13a.79.79 0 0 0 0 .87c.174.26.435.434.783.434h4.696l3.217-5.652c.348-.522 1.217-.522 1.478 0l3.218 5.652h4.782c.348 0 .609-.174.783-.435.087-.26.087-.608 0-.87"/>
        </g>
    </g>
</svg>
