<?xml version="1.0" encoding="UTF-8"?>
<svg width="17px" height="18px" viewBox="0 0 17 18" version="1.1" xmlns="http://www.w3.org/2000/svg" xmlns:xlink="http://www.w3.org/1999/xlink">
    <!-- Generator: Sketch 50.2 (55047) - http://www.bohemiancoding.com/sketch -->
    <title>ic_ac_18@1.5x</title>
    <desc>Created with Sketch.</desc>
    <defs></defs>
    <g id="Working-UI" stroke="none" stroke-width="1" fill="none" fill-rule="evenodd">
        <g id="Cars-Search-Result" transform="translate(-688.000000, -835.000000)" fill="#B4BAC7">
            <g id="Group-51" transform="translate(430.000000, 597.000000)">
                <g id="Group-42" transform="translate(254.000000, 48.000000)">
                    <g id="Group-17">
                        <g id="Group-15" transform="translate(0.000000, 165.000000)">
                            <g id="Group-41" transform="translate(4.000000, 10.000000)">
                                <g id="Group-9">
                                    <g id="Group-2">
                                        <g id="Group" transform="translate(0.000000, 15.000000)">
                                            <g id="ic_ac_18">
                                                <path d="M13.0212784,7.2 L15.7962784,7.95 L16.0212784,7.95 C16.3212784,7.95 16.6212784,7.725 16.7712784,7.425 C16.8462784,7.05 16.6212784,6.6 16.2462784,6.525 L14.8962784,6.15 L15.8712784,5.55 C16.2462784,5.325 16.3212784,4.875 16.1712784,4.5 C16.0212784,4.125 15.4962784,4.05 15.1212784,4.2 L14.0712784,4.8 L14.4462784,3.45 C14.5212784,3.075 14.2962784,2.625 13.9212784,2.55 C13.5462784,2.475 13.0962784,2.7 13.0212784,3.075 L12.2712784,5.85 L9.12127836,7.725 L9.12127836,4.05 L11.1462784,2.025 C11.4462784,1.725 11.4462784,1.275 11.1462784,0.975 C10.8462784,0.675 10.3962784,0.675 10.0962784,0.975 L9.12127836,1.95 L9.12127836,0.75 C9.12127836,0.3 8.82127836,0 8.37127836,0 C7.92127836,0 7.62127836,0.3 7.62127836,0.75 L7.62127836,1.95 L6.64627836,0.975 C6.34627836,0.675 5.89627836,0.675 5.59627836,0.975 C5.29627836,1.275 5.29627836,1.725 5.59627836,2.025 L7.62127836,4.05 L7.62127836,7.725 L4.47127836,5.85 L3.72127836,3.075 C3.64627836,2.7 3.19627836,2.475 2.82127836,2.55 C2.37127836,2.7 2.14627836,3.075 2.29627836,3.525 L2.67127836,4.875 L1.62127836,4.2 C1.24627836,4.05 0.79627836,4.125 0.57127836,4.5 C0.34627836,4.875 0.49627836,5.325 0.87127836,5.55 L1.92127836,6.15 L0.57127836,6.45 C0.12127836,6.6 -0.10372164,6.975 0.0462783598,7.425 C0.12127836,7.725 0.42127836,7.95 0.79627836,7.95 L1.02127836,7.95 L3.79627836,7.2 L6.87127836,9 L3.72127836,10.8 L0.94627836,10.05 C0.57127836,9.975 0.12127836,10.2 0.0462783598,10.575 C-0.0287216402,10.95 0.19627836,11.4 0.57127836,11.475 L1.92127836,11.85 L0.87127836,12.45 C0.49627836,12.675 0.42127836,13.125 0.57127836,13.5 C0.72127836,13.725 0.94627836,13.875 1.24627836,13.875 C1.39627836,13.875 1.47127836,13.875 1.62127836,13.8 L2.67127836,13.2 L2.29627836,14.55 C2.22127836,14.925 2.44627836,15.375 2.82127836,15.45 L3.04627836,15.45 C3.34627836,15.45 3.64627836,15.225 3.79627836,14.925 L4.54627836,12.15 L7.69627836,10.35 L7.69627836,14.025 L5.67127836,16.05 C5.37127836,16.35 5.37127836,16.8 5.67127836,17.1 C5.97127836,17.4 6.42127836,17.4 6.72127836,17.1 L7.69627836,16.125 L7.69627836,17.25 C7.69627836,17.7 7.99627836,18 8.44627836,18 C8.89627836,18 9.19627836,17.7 9.19627836,17.25 L9.19627836,16.05 L10.1712784,17.025 C10.3212784,17.175 10.5462784,17.25 10.6962784,17.25 C10.8462784,17.25 11.0712784,17.175 11.2212784,17.025 C11.5212784,16.725 11.5212784,16.275 11.2212784,15.975 L9.12127836,13.95 L9.12127836,10.275 L12.2712784,12.075 L13.0212784,14.85 C13.0962784,15.15 13.3962784,15.375 13.7712784,15.375 L13.9962784,15.375 C14.3712784,15.3 14.5962784,14.85 14.5212784,14.475 L14.1462784,13.125 L15.1962784,13.725 C15.3462784,13.8 15.4212784,13.8 15.5712784,13.8 C15.7962784,13.8 16.0962784,13.65 16.2462784,13.425 C16.4712784,13.05 16.3212784,12.6 15.9462784,12.375 L14.8962784,11.775 L16.2462784,11.4 C16.6212784,11.325 16.8462784,10.875 16.7712784,10.5 C16.6962784,10.125 16.2462784,9.825 15.8712784,9.975 L13.0962784,10.725 L9.87127836,9 L13.0212784,7.2 L13.0212784,7.2 Z" id="Shape"></path>
                                            </g>
                                        </g>
                                    </g>
                                </g>
                            </g>
                        </g>
                    </g>
                </g>
            </g>
        </g>
    </g>
</svg>