<svg xmlns="http://www.w3.org/2000/svg" width="18" height="12" viewBox="0 0 18 12">
    <path fill="#FFF" fill-rule="evenodd" d="M12 9.375c0-.62.505-1.125 1.125-1.125s1.125.505 1.125 1.125-.505 1.125-1.125 1.125S12 9.995 12 9.375zm-9 0c0-.62.505-1.125 1.125-1.125s1.125.505 1.125 1.125S4.745 10.5 4.125 10.5 3 9.995 3 9.375zM13.925 3.75L11.893.364A.748.748 0 0 0 11.25 0h-7.5a.751.751 0 0 0-.624.334l-3 4.5A.754.754 0 0 0 0 5.25V9c0 .414.335.75.75.75h.788A2.62 2.62 0 0 0 4.125 12a2.62 2.62 0 0 0 2.587-2.25h3.826A2.62 2.62 0 0 0 13.125 12a2.62 2.62 0 0 0 2.587-2.25h1.538A.75.75 0 0 0 18 9V4.5a.75.75 0 0 0-.75-.75h-3.325z"/>
</svg>
