<svg xmlns="http://www.w3.org/2000/svg" width="16" height="16" viewBox="0 0 16 16">
    <g fill="#FFF" fill-rule="evenodd">
        <path d="M6.852 3.128l-1.739 3.13h5.148l-1.809-3.13 1.183-2.087c.208-.348.139-.765-.209-.974-.348-.139-.765-.07-.974.278l-.765 1.392L6.922.345c-.209-.347-.626-.417-.974-.278-.348.209-.418.626-.278.974l1.182 2.087zM15.27 14.954L11.096 7.65H4.278L.104 14.954a.632.632 0 0 0 0 .696.73.73 0 0 0 .626.348h3.757l2.574-4.522c.278-.418.974-.418 1.182 0l2.574 4.522h3.826a.73.73 0 0 0 .627-.348c.07-.209.07-.487 0-.696"/>
    </g>
</svg>
