<?xml version="1.0" encoding="UTF-8"?>
<svg width="14px" height="13px" viewBox="0 0 14 13" version="1.1" xmlns="http://www.w3.org/2000/svg" xmlns:xlink="http://www.w3.org/1999/xlink">
    <!-- Generator: Sketch 50.2 (55047) - http://www.bohemiancoding.com/sketch -->
    <title>Fill 293</title>
    <desc>Created with Sketch.</desc>
    <defs></defs>
    <g id="Hotel-Booking-Flow" stroke="none" stroke-width="1" fill="none" fill-rule="evenodd">
        <g id="Hotels-Search-Result-fullpage" transform="translate(-342.000000, -629.000000)" fill="#E0E0E0">
            <g id="Group-38" transform="translate(230.000000, 449.000000)">
                <g id="Group-37" transform="translate(0.000000, 104.000000)">
                    <g id="Group-46" transform="translate(10.000000, 46.000000)">
                        <g id="Group-45" transform="translate(25.000000, 30.000000)">
                            <path d="M86.3427757,3.99725187 L90.5669628,4.59459574 C90.9812361,4.65340161 91.1466908,5.14860897 90.8469632,5.43273419 L87.7898684,8.33093524 L88.5115057,12.423824 C88.5821422,12.825561 88.148778,13.1313515 87.7784139,12.9419347 L84.0003182,11.010007 L80.2215861,12.9425537 C79.851222,13.1319705 79.4178578,12.825561 79.4884943,12.423824 L80.2101316,8.33093524 L77.1530368,5.43273419 C76.8533092,5.14860897 77.0187639,4.65278261 77.4330372,4.59459574 L81.6572243,3.99725187 L83.5465903,0.273911568 C83.7324088,-0.0913038561 84.2682276,-0.0913038561 84.4534097,0.273911568 L86.3427757,3.99725187 Z" id="Fill-293"></path>
                        </g>
                    </g>
                </g>
            </g>
        </g>
    </g>
</svg>