<?xml version="1.0" encoding="UTF-8"?>
<svg width="16px" height="16px" viewBox="0 0 16 16" version="1.1" xmlns="http://www.w3.org/2000/svg" xmlns:xlink="http://www.w3.org/1999/xlink">
    <!-- Generator: Sketch 50.2 (55047) - http://www.bohemiancoding.com/sketch -->
    <title>Shape</title>
    <desc>Created with Sketch.</desc>
    <defs></defs>
    <g id="UI" stroke="none" stroke-width="1" fill="none" fill-rule="evenodd">
        <g id="Home-Services-Dropdown-Hover-State-2" transform="translate(-880.000000, -105.000000)" fill="#FFFFFF">
            <g id="Group-93" transform="translate(828.000000, 45.000000)">
                <g id="Group-34" transform="translate(40.000000, 45.000000)">
                    <g id="Group-10" transform="translate(0.000000, 3.000000)">
                        <g id="Group-15">
                            <path d="M27.0810457,16.9209436 L22.6543799,16.9209436 L20.5936906,12.4613385 C20.441047,12.1537795 20.2120815,12 19.9067942,12 C19.6015069,12 19.3725414,12.1537795 19.2198978,12.4613385 L17.1592085,16.9209436 L12.7325427,16.9209436 C12.4272554,16.9209436 12.1219681,17.0747231 12.0456463,17.3822821 C11.9693244,17.6898411 11.9693244,17.9974001 12.1982899,18.2280693 L15.4801284,21.6881078 L14.1826574,27.0703899 C14.1063355,27.3779489 14.1826574,27.6855079 14.4879446,27.8392874 C14.7169101,27.9930669 15.0985192,28.0699566 15.3274847,27.9161771 L19.983116,25.2250361 L24.6387473,27.9161771 C24.7913909,27.9930669 24.8677128,27.9930669 25.0203564,27.9930669 C25.1730001,27.9930669 25.3256437,27.9161771 25.4782874,27.8392874 C25.7072528,27.6855079 25.8598965,27.3010592 25.7835747,27.0703899 L24.4861036,21.6881078 L27.7679421,18.2280693 C27.9969076,17.9974001 28.0732294,17.6898411 27.9205857,17.3822821 C27.7679421,17.0747231 27.386333,16.9209436 27.0810457,16.9209436 L27.0810457,16.9209436 Z" id="Shape"></path>
                        </g>
                    </g>
                </g>
            </g>
        </g>
    </g>
</svg>