<svg xmlns="http://www.w3.org/2000/svg" width="20" height="18" viewBox="0 0 20 18">
    <path fill="#FFF" fill-rule="evenodd" d="M17.5 0c.46 0 .833.367.833.818v.818H1.667V.818C1.667.367 2.04 0 2.5 0h15zm1.667 3.273c.46 0 .833.366.833.818v13.09a.826.826 0 0 1-.833.819H.833A.826.826 0 0 1 0 17.182V4.09c0-.452.373-.818.833-.818h18.334zM17.5 13.09V8.18h-.833c-.92 0-1.667-.733-1.667-1.636v-.818H5v.818c0 .903-.747 1.637-1.667 1.637H2.5v4.909h.833c.92 0 1.667.734 1.667 1.636v.818h10v-.818c0-.902.748-1.636 1.667-1.636h.833zm-4.062-5.727a3.317 3.317 0 0 0 2.395 2.351v1.843a3.317 3.317 0 0 0-2.395 2.351H6.562a3.317 3.317 0 0 0-2.395-2.351V9.715a3.317 3.317 0 0 0 2.395-2.351h6.876zM10 12.273c.92 0 1.667-.733 1.667-1.637S10.92 9 10 9c-.92 0-1.667.732-1.667 1.636 0 .904.746 1.637 1.667 1.637z"/>
</svg>
