<svg xmlns="http://www.w3.org/2000/svg" width="20" height="18" viewBox="0 0 20 18">
    <path fill="#FFF" fill-rule="evenodd" d="M8.333 9.588L4.687 6.725a.845.845 0 0 0-1.11.06L0 10.298V.818C0 .367.373 0 .833 0H12.5v4.95c-.951.19-1.667 1.015-1.667 2.005 0 .207.04.403.1.592l-2.6 2.041zM19.166 0c.46 0 .834.367.834.818v9.16l-5.005-3.07a2.054 2.054 0 0 0-1.662-1.958V0h5.833zM.834 18A.826.826 0 0 1 0 17.182v-4.57L4.23 8.46l3.584 2.815a.846.846 0 0 0 1.041 0l3.162-2.484c.153.073.314.134.486.168l-.002.007V18H.834zm12.498-9.041a2.083 2.083 0 0 0 1.012-.521L20 11.908v5.274a.826.826 0 0 1-.833.818h-5.833V8.965l-.002-.006z"/>
</svg>
