<svg xmlns="http://www.w3.org/2000/svg" width="18" height="18" viewBox="0 0 18 18">
    <g fill="none" fill-rule="evenodd">
        <path d="M0 0h18v18H0z"/>
        <path fill="#8F96A5" fill-rule="nonzero" d="M2.5 9.75V3H1v6.75c0 2.07 1.68 3.75 3.75 3.75h4.5V12h-4.5A2.247 2.247 0 0 1 2.5 9.75zm14.122 3.93c-.285-.54-.967-.727-1.522-.473l-.817.375-2.558-5.235a1.507 1.507 0 0 0-1.342-.84L7.75 7.5V3h-4.5v6a2.247 2.247 0 0 0 2.25 2.25h5.25l2.557 5.25 2.79-1.275a1.13 1.13 0 0 0 .525-1.545z"/>
    </g>
</svg>
