<svg xmlns="http://www.w3.org/2000/svg" width="18" height="16" viewBox="0 0 18 16">
    <path fill="#B4BAC7" fill-rule="evenodd" d="M4.332 5.6H15.26C16.77 5.6 18 6.856 18 8.4c0 1.544-1.229 2.8-2.74 2.8h-2.32l-2.898 4.444a.78.78 0 0 1-.65.356H6.26a.78.78 0 0 1-.69-.422.817.817 0 0 1 .039-.822L7.93 11.2H2.347a.787.787 0 0 1-.76-.606l-1.564-6.4a.811.811 0 0 1 .142-.686.775.775 0 0 1 .617-.308h1.565a.78.78 0 0 1 .651.356L4.332 5.6zM9.392 0c.272 0 .525.145.668.383L12.222 4H7.256L5.593 1.217a.815.815 0 0 1-.015-.808A.78.78 0 0 1 6.261 0h3.13z"/>
</svg>
