<?xml version="1.0" encoding="UTF-8"?>
<svg width="16px" height="15px" viewBox="0 0 16 15" version="1.1" xmlns="http://www.w3.org/2000/svg" xmlns:xlink="http://www.w3.org/1999/xlink">
    <!-- Generator: Sketch 50.2 (55047) - http://www.bohemiancoding.com/sketch -->
    <title>Group 17</title>
    <desc>Created with Sketch.</desc>
    <defs></defs>
    <g id="UI" stroke="none" stroke-width="1" fill="none" fill-rule="evenodd">
        <g id="Home-Services-Dropdown-Default" transform="translate(-880.000000, -271.000000)">
            <g id="Group-93" transform="translate(828.000000, 45.000000)">
                <g id="Group-34-Copy" transform="translate(40.000000, 209.000000)">
                    <g id="Group-10" transform="translate(0.000000, 4.000000)">
                        <g id="Group-17" transform="translate(12.000000, 11.000000)">
                            <path d="M12.3256755,2.26666667 L1.16129032,2.26666667 C0.519927387,2.26666667 -4.5504794e-13,2.78659405 -4.54969395e-13,3.42795699 L-4.54525306e-13,15.2580645 C-4.55261957e-13,16.2201089 0.779891081,17 1.74193548,17 L14.2965619,17 C13.7568312,17 13.4869658,16.3251438 13.4869658,14.9754314 C13.4869658,13.625719 13.4869658,12.2046357 13.4869658,10.7121814 L13.4869658,3.42795699 C13.4869658,2.78659405 12.9670385,2.26666667 12.3256755,2.26666667 Z" id="Stroke-2073" fill="#FFFFFF"></path>
                            <path d="M3.48387097,7.08333333 L9.29032258,7.08333333 C9.61100405,7.08333333 9.87096774,6.82962802 9.87096774,6.51666667 C9.87096774,6.20370531 9.61100405,5.95 9.29032258,5.95 L3.48387097,5.95 C3.1631895,5.95 2.90322581,6.20370531 2.90322581,6.51666667 C2.90322581,6.82962802 3.1631895,7.08333333 3.48387097,7.08333333 Z" id="Path-2" fill="#2E7CF8" opacity="0.800000012"></path>
                            <path d="M3.48387097,9.63333333 L9.29032258,9.63333333 C9.61100405,9.63333333 9.87096774,9.37962802 9.87096774,9.06666667 C9.87096774,8.75370531 9.61100405,8.5 9.29032258,8.5 L3.48387097,8.5 C3.1631895,8.5 2.90322581,8.75370531 2.90322581,9.06666667 C2.90322581,9.37962802 3.1631895,9.63333333 3.48387097,9.63333333 Z" id="Path-2-Copy-2" fill="#2E7CF8" opacity="0.800000012"></path>
                            <path d="M3.4702621,12.1833333 L6.19203629,12.1833333 C6.50520179,12.1833333 6.75907258,11.929628 6.75907258,11.6166667 C6.75907258,11.3037053 6.50520179,11.05 6.19203629,11.05 L3.4702621,11.05 C3.1570966,11.05 2.90322581,11.3037053 2.90322581,11.6166667 C2.90322581,11.929628 3.1570966,12.1833333 3.4702621,12.1833333 Z" id="Path-2-Copy" fill="#2E7CF8" opacity="0.800000012"></path>
                            <path d="M13.4691674,12.4666667 L14.2258065,12.4666667 C14.7068287,12.4666667 15.0967742,12.8566122 15.0967742,13.3376344 L15.0967742,16.1861966 C15.0967742,16.6356478 14.732422,17 14.2829708,17 L14.2829708,17 C13.8335196,17 13.4691674,16.6356478 13.4691674,16.1861966 L13.4691674,12.4666667 Z" id="Rectangle-15" fill="#E0E0E0"></path>
                        </g>
                    </g>
                </g>
            </g>
        </g>
    </g>
</svg>