<?xml version="1.0" encoding="UTF-8"?>
<svg width="231px" height="236px" viewBox="0 0 231 236" version="1.1" xmlns="http://www.w3.org/2000/svg" xmlns:xlink="http://www.w3.org/1999/xlink">
    <!-- Generator: sketchtool 50.2 (55047) - http://www.bohemiancoding.com/sketch -->
    <title>C4F1F091-A78A-463D-8085-7E7ED39AFF8E</title>
    <desc>Created with sketchtool.</desc>
    <defs>
        <ellipse id="path-1" cx="101.849153" cy="101.705808" rx="101.849153" ry="101.705808"></ellipse>
        <path d="M0,0 L21.4897172,0 L21.4897172,20.3864884 C21.4897172,26.3207099 16.6790802,31.131347 10.7448586,31.131347 L10.7448586,31.131347 C4.81063706,31.131347 2.50308938e-15,26.3207099 1.77635684e-15,20.3864884 L0,0 Z" id="path-3"></path>
    </defs>
    <g id="Symbols" stroke="none" stroke-width="1" fill="none" fill-rule="evenodd">
        <g id="zerostate_symbols">
            <g id="Group-16">
                <g id="Group-30">
                    <g id="Avatar-1-Light" transform="translate(0.000000, 31.573129)">
                        <mask id="mask-2" fill="white">
                            <use xlink:href="#path-1"></use>
                        </mask>
                        <use id="Oval-5" fill="#F6F7F8" xlink:href="#path-1"></use>
                        <g id="Group-5" mask="url(#mask-2)">
                            <g transform="translate(43.282107, 19.041503)">
                                <path d="M24.9014198,150.222238 L58.7183823,144.894312 L92.5353447,150.222238 C106.874049,152.481329 117.436765,164.838513 117.436765,179.354089 L117.436765,252.677729 L0,252.677729 L7.10542736e-15,179.354089 C5.32778204e-15,164.838513 10.5627153,152.481329 24.9014198,150.222238 Z" id="Rectangle-6" stroke="none" fill="#DCE1E5" fill-rule="evenodd"></path>
                                <g id="Group-3" stroke="none" stroke-width="1" fill="none" fill-rule="evenodd" transform="translate(46.611499, 129.965817)">
                                    <mask id="mask-4" fill="white">
                                        <use xlink:href="#path-3"></use>
                                    </mask>
                                    <use id="Rectangle-5" fill="#F9F9F9" xlink:href="#path-3"></use>
                                    <ellipse id="Oval-4" fill="#F3A2A2" opacity="0.644984149" mask="url(#mask-4)" cx="9.98817842" cy="-7.10542736e-15" rx="19.0683406" ry="19.0415035"></ellipse>
                                </g>
                                <path d="M85.6561968,92.7895487 L87.2110213,92.7895487 C88.737978,92.7895487 89.9758211,94.0273918 89.9758211,95.5543485 C89.9758211,95.7133573 89.9621038,95.8720698 89.9348218,96.0287206 L88.4764701,104.402441 C88.2458834,105.726448 87.0966059,106.692869 85.7526695,106.692869 L85.6561968,106.692869 L85.6561968,92.7895487 Z" id="Rectangle-2" stroke="#DCE1E5" stroke-width="1.5359999" fill="#EEEFEF" fill-rule="evenodd"></path>
                                <path d="M25.4244542,92.7895487 L26.9792786,92.7895487 C28.5062354,92.7895487 29.7440785,94.0273918 29.7440785,95.5543485 C29.7440785,95.7133573 29.7303612,95.8720698 29.7030791,96.0287206 L28.2447274,104.402441 C28.0141408,105.726448 26.8648633,106.692869 25.5209269,106.692869 L25.4244542,106.692869 L25.4244542,92.7895487 Z" id="Rectangle-2" stroke="#DCE1E5" stroke-width="1.5359999" fill="#EEEFEF" fill-rule="evenodd" transform="translate(27.845831, 99.741209) scale(-1, 1) translate(-27.845831, -99.741209) "></path>
                                <path d="M29.6618632,48.66162 L85.9588689,48.66162 L85.9588691,112.851214 C85.9588691,117.386015 84.9548942,121.864575 83.0190141,125.965402 C81.3457765,129.509867 79.6069943,132.319515 77.8026676,134.394345 C75.5083191,137.032661 72.0524746,139.696595 67.4351342,142.386146 L67.4351345,142.386147 C65.0880102,143.753322 62.4203127,144.47363 59.704036,144.47363 L54.1762488,144.473631 C50.7924879,144.473631 47.5034229,143.356272 44.819884,141.295094 C41.4510593,138.70756 39.0273927,136.442365 37.548884,134.499509 C36.1283856,132.632882 34.4342355,129.557751 32.4664336,125.274116 L32.4664334,125.274116 C30.6185581,121.251545 29.6618632,116.877126 29.6618632,112.450421 L29.6618632,48.66162 Z" id="Rectangle" stroke="none" fill="#F5F5F5" fill-rule="evenodd"></path>
                                <path d="M75.5436129,88.249536 C74.1217071,87.1183731 72.3205594,86.4423809 70.3613028,86.4423809 C68.0594978,86.4423809 65.9759211,87.375412 64.4691516,88.8833998" id="Oval-3" stroke="#B3BCC4" stroke-width="1.68959989" fill="none" opacity="0.800000012" stroke-linejoin="round"></path>
                                <path d="M51.329847,88.249536 C49.9079412,87.1183731 48.1067936,86.4423809 46.1475369,86.4423809 C43.845732,86.4423809 41.7621552,87.375412 40.2553858,88.8833998" id="Oval-3" stroke="#B3BCC4" stroke-width="1.68959989" fill="none" stroke-linejoin="round" transform="translate(45.792616, 87.662890) scale(-1, 1) translate(-45.792616, -87.662890) "></path>
                                <path d="M29.6618632,107.066082 L31.4853601,111.234946 C33.844354,116.628058 40.128678,119.087697 45.5217905,116.728703 C46.1050431,116.473584 46.6642662,116.166722 47.1927537,115.811799 L47.1927537,115.811799 C53.5886305,111.516432 61.9572783,111.555706 68.3125587,115.910912 L68.3797988,115.956991 C73.2839044,119.317723 79.983879,118.066572 83.344611,113.162466 C83.7009617,112.642466 84.0109464,112.092168 84.2709912,111.517918 L85.9588689,107.790623 L85.9588689,130.208675 C85.9588689,142.593991 75.9185864,152.634274 63.5332703,152.634274 L52.0874618,152.634274 C39.7021457,152.634274 29.6618632,142.593991 29.6618632,130.208675 L29.6618632,107.066082 Z" id="Rectangle-3" stroke="none" fill="#B3BCC4" fill-rule="evenodd"></path>
                                <path d="M58.0554714,124.309354 C62.6513385,124.309354 65.1031805,122.769388 65.4109974,119.689454 L57.7927741,119.689458 C56.0903726,119.689458 53.5509649,119.689458 50.1745507,119.689458 C50.8326308,122.769389 53.4596044,124.309354 58.0554714,124.309354 Z" id="Oval" stroke="none" fill="#FFFFFF" fill-rule="evenodd"></path>
                                <ellipse id="Oval-2" stroke="none" fill="#B3BCC4" fill-rule="evenodd" cx="46.1574912" cy="93.2429178" rx="2.27004055" ry="2.26684565"></ellipse>
                                <ellipse id="Oval-2" stroke="none" fill="#B3BCC4" fill-rule="evenodd" cx="70.3712571" cy="93.2429178" rx="2.27004055" ry="2.26684565"></ellipse>
                                <polygon id="Rectangle-4" stroke="none" fill="#DCE1E5" fill-rule="evenodd" points="57.6473188 94.3106782 61.605284 110.542754 54.0305621 110.542754"></polygon>
                                <g id="Group-6" stroke="none" stroke-width="1" fill="none" fill-rule="evenodd" transform="translate(30.583240, 84.770506) scale(-1, 1) translate(-30.583240, -84.770506) translate(29.083240, 76.770506)">
                                    <polygon id="Path-3" fill="#DCE1E5" points="0 0.74822412 2.32852691 15.7139801 2.32852691 0.133848819"></polygon>
                                    <ellipse id="Oval-7" fill="#FF8989" opacity="0.5" cx="0.90801622" cy="2.4179687" rx="1" ry="1"></ellipse>
                                </g>
                                <path d="M98.3965369,33.4476078 C101.739375,36.6882866 103.816521,41.2237386 103.816521,46.2436513 C103.816521,56.0922797 95.8213779,64.0761704 85.9588689,64.0761704 C81.5134965,64.0761704 77.4475011,62.4541511 74.3220146,59.7704547 C70.819482,62.6495535 66.3331398,64.3784165 61.4424309,64.3784165 C59.0986889,64.3784165 56.8478117,63.9813744 54.7535706,63.2509716 C51.9062022,72.984644 42.9019406,80.0952131 32.2345758,80.0952131 C19.2795851,80.0952131 8.77749013,69.6078989 8.77749013,56.6711413 C8.77749013,49.2023718 12.2779345,42.5500242 17.7299226,38.2608191 C15.8971623,35.4761651 14.8309316,32.1435507 14.8309316,28.5622552 C14.8309316,18.7970898 22.7583194,10.8808591 32.5372479,10.8808591 C34.149723,10.8808591 35.7118555,11.0960986 37.1964048,11.4993756 C39.041923,4.86733758 45.1328809,0 52.3622687,0 C57.8555069,0 62.6914505,2.81025216 65.507013,7.06958854 C68.5428999,5.63705542 71.9361037,4.83593739 75.5166823,4.83593739 C88.471673,4.83593739 98.973768,15.3232515 98.973768,28.2600091 C98.973768,30.0427341 98.7743365,31.778945 98.3965369,33.4476078 Z" id="Combined-Shape" stroke="none" fill="#4C2500" fill-rule="evenodd"></path>
                                <g id="Group-6" stroke="none" stroke-width="1" fill="none" fill-rule="evenodd" transform="translate(83.840164, 76.770506)">
                                    <polygon id="Path-3" fill="#DCE1E5" points="0 0.619764456 2.11870451 15.7167965 2.11870451 0"></polygon>
                                </g>
                                <path d="M83.2414842,77.7012939 C88.8413834,77.7012939 91.9636917,73.1680678 91.9636917,67.57605 C91.9636917,61.9840322 88.1450596,57.6173187 82.5451604,57.6173187 L83.2414842,77.7012939 Z" id="Oval-6" stroke="none" fill="#C4CDD5" fill-rule="evenodd" transform="translate(87.254426, 67.659306) rotate(-4.000000) translate(-87.254426, -67.659306) "></path>
                            </g>
                        </g>
                    </g>
                    <g id="Group-28" transform="translate(1.601518, 50.357143)">
                        <path d="M66.5506812,59.7267687 C66.5506812,51.2423895 70.8771822,43.7483673 77.4426053,39.324932 L77.4426053,32.352466 C77.4426053,31.2534014 76.5417514,30.3541667 75.4407078,30.3541667 L9.9462277,30.3541667 C8.84518406,30.3541667 7.94433017,31.2534014 7.94433017,32.352466 L7.94433017,75.0489286 C7.94433017,76.1479932 8.84518406,77.0472279 9.9462277,77.0472279 L35.9608861,77.0472279 C37.0619298,77.0472279 38.6310171,77.6503146 39.4477913,78.3876871 L53.2372619,90.8346939 C54.0536357,91.5720663 54.7218691,91.2759184 54.7218691,90.1768537 L54.7218691,79.0459269 C54.7218691,77.9468622 55.622723,77.0476276 56.7237666,77.0476276 L66.5506812,77.0476276 L66.5506812,59.7267687 Z" id="Shape" fill="#EAEDF0" fill-rule="nonzero"></path>
                        <path d="M7.94433017,75.0489286 L7.94433017,32.352466 C7.94433017,31.2534014 8.84518406,30.3541667 9.9462277,30.3541667 L2.00189753,30.3541667 C0.90085389,30.3541667 0,31.2534014 0,32.352466 L0,75.0489286 C0,76.1479932 0.90085389,77.0472279 2.00189753,77.0472279 L9.9462277,77.0472279 C8.84518406,77.0472279 7.94433017,76.1479932 7.94433017,75.0489286 Z" id="Shape" fill="#DCE1E5" fill-rule="nonzero"></path>
                        <g id="Group" transform="translate(11.611006, 39.965986)" fill="#DCE1E5" fill-rule="nonzero">
                            <path d="M42.7481195,6.07642857 L3.33676281,6.07642857 C1.67839089,6.07642857 0.333916509,4.73477041 0.333916509,3.07897959 C0.333916509,1.42318878 1.67839089,0.0815306122 3.33676281,0.0815306122 L42.7481195,0.0815306122 C44.4064915,0.0815306122 45.7509658,1.42318878 45.7509658,3.07897959 C45.7509658,4.73477041 44.4068918,6.07642857 42.7481195,6.07642857 Z" id="Shape"></path>
                            <path d="M42.7481195,15.9284439 L3.33676281,15.9284439 C1.67839089,15.9284439 0.333916509,14.5867857 0.333916509,12.9309949 C0.333916509,11.2752041 1.67839089,9.93354592 3.33676281,9.93354592 L42.7481195,9.93354592 C44.4064915,9.93354592 45.7509658,11.2752041 45.7509658,12.9309949 C45.7509658,14.5867857 44.4068918,15.9284439 42.7481195,15.9284439 Z" id="Shape"></path>
                            <path d="M23.1199146,25.7800595 L3.33676281,25.7800595 C1.67839089,25.7800595 0.333916509,24.4384014 0.333916509,22.7826105 C0.333916509,21.1268197 1.67839089,19.7851616 3.33676281,19.7851616 L23.1199146,19.7851616 C24.7782865,19.7851616 26.1227609,21.1268197 26.1227609,22.7826105 C26.1227609,24.4384014 24.7782865,25.7800595 23.1199146,25.7800595 Z" id="Shape"></path>
                        </g>
                        <path d="M140.077125,33.7050977 C143.419963,36.9457765 145.49711,41.4812285 145.49711,46.5011412 C145.49711,56.3497696 137.501966,64.3336603 127.639457,64.3336603 C123.194085,64.3336603 119.12809,62.7116409 116.002603,60.0279446 C112.50007,62.9070434 108.013728,64.6359064 103.123019,64.6359064 C100.779277,64.6359064 98.5284002,64.2388643 96.4341591,63.5084615 C93.5867907,73.2421339 84.582529,80.3527029 73.9151643,80.3527029 C60.9601736,80.3527029 50.4580786,69.8653888 50.4580786,56.9286312 C50.4580786,49.4598617 53.958523,42.807514 59.4105111,38.5183089 C57.5777508,35.733655 56.5115201,32.4010406 56.5115201,28.8197451 C56.5115201,19.0545797 64.4389079,11.138349 74.2178364,11.138349 C75.8303115,11.138349 77.3924439,11.3535885 78.8769933,11.7568655 C80.7225114,5.12482745 86.8134694,0.257489876 94.0428572,0.257489876 C99.5360954,0.257489876 104.372039,3.06774204 107.187602,7.32707841 C110.223488,5.89454529 113.616692,5.09342727 117.197271,5.09342727 C130.152262,5.09342727 140.654357,15.5807414 140.654357,28.517499 C140.654357,30.300224 140.454925,32.0364348 140.077125,33.7050977 Z" id="Combined-Shape" fill="#B3BCC4"></path>
                    </g>
                    <path d="M29.6280835,1.99829932 C29.6280835,0.899234694 30.5289374,0 31.629981,0 L98.1258102,0 C99.2268539,0 100.127708,0.899234694 100.127708,1.99829932 L100.127708,41.4826956 C100.127708,42.5817602 99.2268539,43.4809949 98.1258102,43.4809949 L79.0813586,43.4809949 C77.980315,43.4809949 77.0794611,44.3802296 77.0794611,45.4792942 L77.0794611,52.4529592 C77.0794611,53.5520238 76.3227438,53.9628741 75.3982676,53.366182 L61.7605408,44.5660714 C60.8356641,43.9693793 59.1784934,43.4809949 58.0774497,43.4809949 L31.6303814,43.4809949 C30.5293378,43.4809949 29.6284839,42.5817602 29.6284839,41.4826956 L29.6280835,1.99829932 Z" id="Shape" fill="#EAEDF0" fill-rule="nonzero"></path>
                    <path d="M37.5724137,41.4826956 L37.5724137,1.99829932 C37.5724137,0.899234694 38.4732676,0 39.5743112,0 L31.629981,0 C30.5289374,0 29.6280835,0.899234694 29.6280835,1.99829932 L29.6280835,41.4826956 C29.6280835,42.5817602 30.5289374,43.4809949 31.629981,43.4809949 L39.5743112,43.4809949 C38.4732676,43.4809949 37.5724137,42.5817602 37.5724137,41.4826956 Z" id="Shape" fill="#DCE1E5" fill-rule="nonzero"></path>
                    <g id="Group" transform="translate(39.233397, 9.991497)" fill="#DCE1E5" fill-rule="nonzero">
                        <path d="M10.1368083,1.1142517 C10.6472922,0.0819302721 11.4824839,0.0819302721 11.9925674,1.1142517 L13.7762581,4.72038265 C14.2863416,5.75270408 15.6376224,6.73306973 16.778704,6.89852891 L20.7664839,7.47763605 C21.9083662,7.64269558 22.1658102,8.43522109 21.3402277,9.23893707 L18.4546926,12.0465476 C17.6287097,12.8502636 17.1126205,14.4361139 17.3076053,15.5695493 L17.9890512,19.5345748 C18.1844364,20.6692092 17.5081954,21.1591922 16.4876281,20.623648 L12.9206471,18.7516412 C11.9000797,18.2160969 10.2300968,18.2160969 9.20912903,18.7516412 L5.64294877,20.623648 C4.62198102,21.1595918 3.94574004,20.6692092 4.14112524,19.5345748 L4.82257116,15.5695493 C5.01675522,14.4357143 4.50106641,12.8498639 3.67548387,12.0465476 L0.789948767,9.23893707 C-0.0360341556,8.43522109 0.222611006,7.64269558 1.3636926,7.47763605 L5.35107211,6.89852891 C6.49295446,6.73306973 7.84423529,5.75270408 8.35391841,4.72038265 L10.1368083,1.1142517 Z" id="Shape"></path>
                        <path d="M54.856797,6.14836735 L28.0634004,6.14836735 C26.4050285,6.14836735 25.0605541,4.80670918 25.0605541,3.15091837 C25.0605541,1.49512755 26.4050285,0.153469388 28.0634004,0.153469388 L54.856797,0.153469388 C56.5155693,0.153469388 57.8596433,1.49512755 57.8596433,3.15091837 C57.8596433,4.80670918 56.5151689,6.14836735 54.856797,6.14836735 Z" id="Shape"></path>
                        <path d="M54.856797,14.1299745 L28.0634004,14.1299745 C26.4050285,14.1299745 25.0605541,12.7883163 25.0605541,11.1325255 C25.0605541,9.47673469 26.4050285,8.13507653 28.0634004,8.13507653 L54.856797,8.13507653 C56.5155693,8.13507653 57.8596433,9.47673469 57.8596433,11.1325255 C57.8596433,12.7883163 56.5151689,14.1299745 54.856797,14.1299745 Z" id="Shape"></path>
                        <path d="M41.5129488,22.111182 L28.0634004,22.111182 C26.4050285,22.111182 25.0605541,20.7695238 25.0605541,19.113733 C25.0605541,17.4579422 26.4050285,16.116284 28.0634004,16.116284 L41.5129488,16.116284 C43.1713207,16.116284 44.5157951,17.4579422 44.5157951,19.113733 C44.5157951,20.7695238 43.1713207,22.111182 41.5129488,22.111182 Z" id="Shape"></path>
                    </g>
                    <g id="Group-10" transform="translate(151.000000, 114.000000)" fill-rule="nonzero">
                        <path d="M79.6324516,2.39455782 C79.6324516,1.2954932 78.7315977,0.396258503 77.6305541,0.396258503 L2.32637571,0.396258503 C1.22533207,0.396258503 0.324478178,1.2954932 0.324478178,2.39455782 L0.324478178,43.487585 C0.324478178,44.5866497 1.22533207,45.4858844 2.32637571,45.4858844 L24.2507571,45.4858844 C25.3518008,45.4858844 26.2526546,46.385119 26.2526546,47.4841837 L26.2526546,54.8639031 C26.2526546,55.9629677 27.0265882,56.4021939 27.9722846,55.8390731 L43.6575522,46.5086139 C44.6032486,45.9458929 46.2780361,45.4854847 47.3790797,45.4854847 L77.6305541,45.4854847 C78.7315977,45.4854847 79.6324516,44.58625 79.6324516,43.4871854 L79.6324516,2.39455782 Z" id="Shape" fill="#EAEDF0"></path>
                        <path d="M8.26920873,43.487585 L8.26920873,2.39455782 C8.26920873,1.2954932 9.17006262,0.396258503 10.2711063,0.396258503 L2.32637571,0.396258503 C1.22533207,0.396258503 0.324478178,1.2954932 0.324478178,2.39455782 L0.324478178,43.487585 C0.324478178,44.5866497 1.22533207,45.4858844 2.32637571,45.4858844 L10.2711063,45.4858844 C9.17006262,45.4858844 8.26920873,44.5866497 8.26920873,43.487585 Z" id="Shape" fill="#DCE1E5"></path>
                        <g id="Group" transform="translate(14.439401, 15.586735)" fill="#DCE1E5">
                            <g id="Group-11">
                                <path d="M7.76670577,0.566515686 C8.17011264,-0.188838562 8.83005172,-0.188838562 9.232794,0.566515686 L10.6420597,3.2051871 C11.0451342,3.96054134 12.1128,4.67780534 13.014318,4.79883404 L16.1644804,5.22243449 C17.066663,5.34346319 17.2703602,5.9231108 16.6177316,6.51105225 L14.3381837,8.56546836 C13.6855552,9.15340981 13.2778284,10.3136266 13.4316813,11.1433182 L13.9700002,14.0443209 C14.1245177,14.8743197 13.589854,15.2331053 12.7837049,14.8411444 L9.96583811,13.4714312 C9.15935667,13.0797774 7.8401431,13.0797774 7.03332937,13.4714312 L4.2157949,14.8411444 C3.40931346,15.2331053 2.87498212,14.8743197 3.02949958,14.0443209 L3.56781847,11.1433182 C3.72133904,10.3139337 3.31394462,9.15340981 2.66164834,8.56546836 L0.382100468,6.51105225 C-0.270528107,5.9231108 -0.0661663077,5.34315601 0.835019382,5.22243449 L3.98518175,4.79883404 C4.88736433,4.67749816 5.95503012,3.96054134 6.35777239,3.2051871 L7.76670577,0.566515686 Z" id="Shape"></path>
                                <path d="M26.766671,0.566515686 C27.1700711,-0.188838562 27.829667,-0.188838562 28.2327348,0.566515686 L29.6416448,3.2051871 C30.045045,3.96054134 31.112693,4.67780534 32.0138637,4.79883404 L35.1646383,5.22243449 C36.0668059,5.34346319 36.2701675,5.9231108 35.617882,6.51105225 L33.3380397,8.56546836 C32.6857543,9.15340981 32.2780344,10.3136266 32.4315524,11.1433182 L32.9701946,14.0443209 C33.1247095,14.8743197 32.590387,15.2331053 31.783919,14.8411444 L28.9660991,13.4714312 C28.159631,13.0797774 26.8404394,13.0797774 26.033639,13.4714312 L23.2161514,14.8411444 C22.409351,15.2331053 21.8753609,14.8743197 22.0298758,14.0443209 L22.5681857,11.1433182 C22.7217037,10.3139337 22.3139838,9.15340981 21.6616984,8.56546836 L19.3821884,6.51105225 C18.7295706,5.9231108 18.9335967,5.34315601 19.8350997,5.22243449 L22.9852098,4.79883404 C23.8873774,4.67749816 24.9546931,3.96054134 25.357761,3.2051871 L26.766671,0.566515686 Z" id="Shape"></path>
                                <path d="M45.7671053,0.566515686 C46.170822,-0.188838562 46.830392,-0.188838562 47.2331119,0.566515686 L48.642299,3.2051871 C49.0453512,3.96054134 50.1129575,4.67780534 51.0144252,4.79883404 L54.1647444,5.22243449 C55.0668767,5.34346319 55.2702303,5.9231108 54.6176381,6.51105225 L52.3382172,8.56546836 C51.685625,9.15340981 51.2782532,10.3136266 51.4317653,11.1433182 L51.9700542,14.0443209 C52.124563,14.8743197 51.5902614,15.2331053 50.7841572,14.8411444 L47.9657829,13.4714312 C47.1596786,13.0797774 45.8405386,13.0797774 45.0334375,13.4714312 L42.21606,14.8411444 C41.4092912,15.2331053 40.8749896,14.8743197 41.0294985,14.0443209 L41.5681196,11.1433182 C41.7216317,10.3139337 41.3139277,9.15340981 40.6616677,8.56546836 L38.3819146,6.51105225 C37.7296546,5.9231108 37.9336728,5.34315601 38.8351405,5.22243449 L41.9851274,4.79883404 C42.8869274,4.67749816 43.9545338,3.96054134 44.3575859,3.2051871 L45.7671053,0.566515686 Z" id="Shape"></path>
                            </g>
                        </g>
                    </g>
                </g>
            </g>
        </g>
    </g>
</svg>